<?xml version="1.0" encoding="UTF-8" standalone="no"?>
<svg
   width="1024"
   height="1024"
   viewBox="0 0 3199.9975 3199.9999"
   version="1.1"
   id="svg3"
   xml:space="preserve"
   sodipodi:docname="F_black.svg"
   inkscape:version="1.2.2 (b0a8486, 2022-12-01)"
   xmlns:inkscape="http://www.inkscape.org/namespaces/inkscape"
   xmlns:sodipodi="http://sodipodi.sourceforge.net/DTD/sodipodi-0.dtd"
   xmlns="http://www.w3.org/2000/svg"
   xmlns:svg="http://www.w3.org/2000/svg"><sodipodi:namedview
     id="namedview10"
     pagecolor="#505050"
     bordercolor="#ffffff"
     borderopacity="1"
     inkscape:showpageshadow="0"
     inkscape:pageopacity="0"
     inkscape:pagecheckerboard="1"
     inkscape:deskcolor="#505050"
     inkscape:document-units="in"
     showgrid="false"
     inkscape:zoom="0.57208595"
     inkscape:cx="647.62996"
     inkscape:cy="575.08841"
     inkscape:window-width="1920"
     inkscape:window-height="1052"
     inkscape:window-x="1680"
     inkscape:window-y="0"
     inkscape:window-maximized="1"
     inkscape:current-layer="svg3" /><defs
     id="defs7" /><g
     id="g1005"
     transform="matrix(10.85622,0,0,13.149035,-4935.5214,-2542.018)"><path
       id="Path #1"
       fill="none"
       stroke="#000000"
       stroke-width="1"
       d="m 700.25892,259.27926 c 0,-3.32 1.35,-6.1 4.04,-8.36 2.7,-2.26 5.62,-3.82 8.75,-4.69 3.14,-0.88 5.92,-0.96 8.35,-0.27 2.44,0.7 3.39,2.26 2.87,4.69 -0.7,4.18 -1.65,9.75 -2.87,16.72 -1.22,6.96 -2.35,14.35 -3.39,22.19 -1.05,7.82 -1.83,15.56 -2.35,23.22 -0.52,7.65 -0.52,14.35 0,20.09 0.18,1.4 -0.3,2.48 -1.43,3.26 -1.14,0.79 -2.45,1.31 -3.93,1.57 -1.48,0.26 -2.87,0.13 -4.17,-0.39 -1.3,-0.52 -2.04,-1.48 -2.22,-2.88 -1.04,-6.08 -1.82,-12.99 -2.34,-20.73 -0.52,-7.75 -0.87,-15.24 -1.05,-22.46 -0.18,-7.21 -0.26,-13.73 -0.26,-19.56 z m 25.84,114.04 c -0.34,4.36 -2.21,7.45 -5.61,9.28 -3.4,1.83 -6.92,2.3 -10.58,1.43 -3.48,-0.87 -6.65,-2.65 -9.53,-5.35 -2.86,-2.69 -4.12,-6.05 -3.78,-10.05 0.35,-4.53 2.05,-7.7 5.1,-9.53 3.05,-1.82 6.57,-2.47 10.57,-1.95 4,0.87 7.39,2.78 10.17,5.74 2.79,2.96 4,6.43 3.66,10.43 z"
       style="display:inline;fill:#0d0d0d;fill-opacity:1;stroke:#0d0d0d;stroke-width:0.3;stroke-dasharray:none;stroke-opacity:1"
       sodipodi:nodetypes="scccccccccsscccsscsccccccc" /><path
       id="path943"
       fill="none"
       stroke="#000000"
       stroke-width="1"
       d="m 616.65144,312.94374 c 2.78,0.18 5.6,1.61 8.48,4.31 2.87,2.7 4.31,5.26 4.31,7.7 0,2.61 -1.92,4.26 -5.75,4.95 l -50.37,3.66 c -0.18,2.26 -0.31,5.57 -0.39,9.92 -0.09,4.36 -0.13,9.14 -0.13,14.36 0,5.22 -0.05,10.53 -0.14,15.92 -0.09,5.4 -0.39,10.32 -0.91,14.75 -0.52,4.44 -1.26,8.09 -2.21,10.96 -0.97,2.87 -2.31,4.31 -4.05,4.31 -2.78,0 -5.17,-0.83 -7.17,-2.48 -2,-1.65 -3.61,-3.56 -4.83,-5.74 -1.22,-2.18 -2.14,-4.4 -2.75,-6.66 -0.61,-2.25 -0.91,-3.91 -0.91,-4.96 0,-8.18 0.08,-16.31 0.25,-24.39 0.18,-8.1 0.53,-16.32 1.05,-24.68 l -16.95,1.83 c -2.96,0.35 -4.49,-0.04 -4.58,-1.17 -0.09,-1.13 0.87,-2.48 2.87,-4.05 2,-1.57 4.7,-3.14 8.1,-4.7 3.39,-1.56 7.09,-2.61 11.09,-3.14 0,-10.96 0.13,-22.13 0.39,-33.53 0.26,-11.4 1.52,-22.84 3.78,-34.33 -13.4,0.52 -24.1,0.96 -32.11,1.31 -8,0.35 -14.35,0.61 -19.04,0.78 -4.7,0.18 -8.31,0.31 -10.83,0.39 -2.53,0.09 -5,0.13 -7.44,0.13 -4.7,0 -8.35,-0.7 -10.97,-2.09 -2.6,-1.4 -3.9,-3.06 -3.9,-4.97 0,-2.8 1.39,-4.85 4.17,-6.16 2.78,-1.31 6.17,-2.19 10.17,-2.62 4.01,-0.44 8.27,-0.66 12.8,-0.66 4.52,0 8.52,-0.18 12,-0.53 12.35,-1.22 24.7,-2.7 37.06,-4.46 12.36,-1.74 24.76,-3.36 37.2,-4.84 12.44,-1.49 24.92,-2.58 37.44,-3.28 12.53,-0.7 25.06,-0.7 37.59,0 h 0.27 c 2.08,0.36 4.47,0.88 7.17,1.58 2.7,0.7 5.27,1.7 7.7,3.01 2.44,1.31 4.53,2.88 6.27,4.72 1.74,1.84 2.61,3.97 2.61,6.41 0,2.45 -1.92,4.29 -5.75,5.51 -3.83,1.22 -10.26,2.14 -19.31,2.75 -9.05,0.62 -20.92,1.06 -35.63,1.32 -14.7,0.26 -32.83,0.74 -54.41,1.43 0.52,3.84 1.04,8.28 1.57,13.32 0.52,5.04 0.95,10.31 1.29,15.79 0.36,5.48 0.62,11.05 0.79,16.71 0.17,5.65 0.35,11 0.53,16.04 7.12,-1.38 14.34,-2.64 21.65,-3.78 7.32,-1.13 14.62,-1.35 21.93,-0.65 z"
       style="display:inline;fill:#0d0d0d;fill-opacity:1;stroke:#0d0d0d;stroke-width:0.3;stroke-dasharray:none;stroke-opacity:1"
       sodipodi:nodetypes="ccscccscccssscscccssccsccccscsscsccccccscsssccccccccc" /></g></svg>
