<?xml version="1.0" encoding="UTF-8" standalone="no"?>
<svg
   width="2.3in"
   height="0.69in"
   viewBox="0 0 690 207"
   version="1.1"
   id="svg3"
   sodipodi:docname="Fet_a_Horta.svg"
   inkscape:version="1.2.2 (b0a8486, 2022-12-01)"
   xmlns:inkscape="http://www.inkscape.org/namespaces/inkscape"
   xmlns:sodipodi="http://sodipodi.sourceforge.net/DTD/sodipodi-0.dtd"
   xmlns="http://www.w3.org/2000/svg"
   xmlns:svg="http://www.w3.org/2000/svg">
  <defs
     id="defs7" />
  <sodipodi:namedview
     id="namedview5"
     pagecolor="#505050"
     bordercolor="#ffffff"
     borderopacity="1"
     inkscape:showpageshadow="0"
     inkscape:pageopacity="0"
     inkscape:pagecheckerboard="1"
     inkscape:deskcolor="#505050"
     inkscape:document-units="in"
     showgrid="false"
     inkscape:zoom="6.4583335"
     inkscape:cx="110.4"
     inkscape:cy="8.3612901"
     inkscape:window-width="1920"
     inkscape:window-height="1052"
     inkscape:window-x="1680"
     inkscape:window-y="0"
     inkscape:window-maximized="1"
     inkscape:current-layer="svg3" />
  <path
     id="Path"
     fill="none"
     stroke="black"
     stroke-width="1"
     d="m 139.31,63.44 c 0,2.76 -1.1,4.62 -3.31,5.58 -1.48,0.65 -3.68,0.98 -6.59,0.98 h -1.94 c 0,0.7 -1.42,5.34 -4.27,13.92 -1.35,4.08 -2.03,8.24 -2.03,12.5 0,2.03 0.21,3.31 0.63,3.81 0.42,0.52 1.22,0.77 2.37,0.77 h 1.66 c 1.16,0 2.36,-0.18 3.59,-0.53 1.23,-0.36 3.46,-1.22 6.69,-2.58 v 7.41 c -0.77,2.35 -1.29,5.29 -1.55,8.81 -0.26,3.52 -1.33,5.28 -3.2,5.28 -1.43,0 -2.24,-2.23 -2.44,-6.69 -0.19,-4.47 -1.73,-6.7 -4.64,-6.7 h -2.33 v 9.64 c 0,10.03 -2.84,18.82 -8.53,26.36 -6.02,8 -13.43,12 -22.22,12 H 80.92 c -4.21,0 -8.32,-2.02 -12.33,-6.06 -4.39,-3.69 -6.59,-8.05 -6.59,-13.1 0,-2.84 0.77,-5.39 2.33,-7.65 1.55,-2.27 3.39,-3.41 5.53,-3.41 1.94,0.26 3.39,0.52 4.36,0.78 2.91,0.91 4.37,2.24 4.37,3.99 0,0.71 -1.23,2.77 -3.68,6.2 -1.23,1.75 -1.85,3.37 -1.85,4.84 0,2.98 1.23,5.3 3.69,6.94 2.46,1.65 5.69,2.47 9.7,2.47 6.47,0 11.35,-2.49 14.64,-7.48 2.34,-3.54 4.15,-8.9 5.44,-16.1 1.61,-9.08 2.55,-14.03 2.81,-14.86 v -3.12 h -4.76 c -1.16,0.4 -2.5,0.77 -4.02,1.09 -1.52,0.33 -3.09,0.49 -4.7,0.49 h -2.33 c 0.71,-3.16 3.52,-4.93 8.44,-5.3 4.91,-0.38 8.15,-3.52 9.7,-9.39 1.17,-4.3 2.85,-8.29 5.05,-11.95 0.32,-0.5 2.84,-4.23 7.56,-11.19 -1.62,-1.39 -5.3,-3.15 -11.06,-5.3 C 106.36,63.3 100.87,62 96.73,62 c -5.37,0 -9.48,1.21 -12.32,3.64 -2.85,2.43 -4.27,5.76 -4.27,9.98 0,3.11 1.23,5.78 3.69,8.02 2.46,2.24 5.43,3.36 8.92,3.36 2.78,0 4.33,0.03 4.66,0.09 0.9,0.41 2.22,0.92 3.97,1.53 -1.1,1.69 -3.14,3.41 -6.11,5.16 C 92.74,95.26 91.13,96 90.42,96 h -9.5 c -2.53,0 -5.09,-1.63 -7.67,-4.91 -2.78,-3.45 -4.17,-7.11 -4.17,-10.97 0,-6.98 3.23,-12.83 9.7,-17.54 C 83.88,58.86 88.54,57 92.75,57 h 11.83 l 24.45,4 c 1.61,-0.32 3.04,-0.76 4.27,-1.31 1.22,-0.55 2.42,-1.19 3.59,-1.91 h 2.42 c 0,0.46 0.03,1.13 0.1,2.02 0.06,0.88 0.09,1.52 0.09,1.9 0,0.39 -0.06,0.97 -0.19,1.74 z m 42.1,76.86 c -2.98,3.07 -5.44,5.36 -7.38,6.86 -5.82,4.56 -10.99,6.84 -15.51,6.84 h -8.55 c -3.36,0 -6.85,-1.62 -10.47,-4.88 -4.34,-3.9 -6.5,-8.55 -6.5,-13.95 0,-2.33 1.04,-5.42 3.11,-9.26 2.58,-4.74 5.81,-8.57 9.69,-11.5 5.05,-3.77 10.68,-5.66 16.89,-5.66 4.78,0 8.17,0.96 10.19,2.87 1.67,1.6 2.51,4 2.51,7.19 0,4.8 -2.49,8.95 -7.47,12.46 -2.58,1.85 -7.21,4.15 -13.87,6.9 -4.98,2.04 -7.47,3.71 -7.47,4.99 0,1.28 0.9,2.57 2.72,3.89 1.81,1.3 4,1.95 6.59,1.95 4.98,0 9.09,-1.02 12.33,-3.06 4.39,-3.28 8.79,-6.6 13.19,-9.94 z m -16.99,-21.41 c 0,-2 -0.32,-3.35 -0.97,-4.06 -0.65,-0.72 -1.74,-1.08 -3.29,-1.08 -3.11,0 -5.57,1.59 -7.38,4.77 -1.8,3.16 -3.58,6.39 -5.33,9.68 v 7.68 c 3.75,-1.43 6.57,-2.76 8.44,-3.99 5.69,-3.69 8.53,-8.02 8.53,-13 z m 40.74,-10.91 c -1.3,0.41 -2.45,0.68 -3.46,0.82 -1,0.13 -1.91,0.2 -2.75,0.2 h -2.53 c -0.65,0 -1.09,0.03 -1.34,0.09 -0.46,0.13 -0.98,0.37 -1.56,0.72 -0.59,0.35 -1.69,4.23 -3.3,11.64 -1.94,8.81 -2.91,16.51 -2.91,23.11 0,1.08 0.24,1.96 0.72,2.66 0.49,0.69 1.29,1.03 2.39,1.03 0.97,0 2.33,-0.8 4.08,-2.39 2.38,-2.16 4.91,-5.45 7.56,-9.86 h 2.33 v 4.5 c -2.4,3.94 -5.13,7.05 -8.2,9.33 -3.08,2.28 -6.03,3.42 -8.88,3.42 -2.46,0 -4.62,-0.84 -6.5,-2.53 -1.87,-1.7 -2.81,-3.83 -2.81,-6.41 v -9.22 c 0,-2.25 0.77,-6.9 2.33,-13.93 0.52,-2.32 1.33,-5.68 2.42,-10.07 0,-0.56 -0.42,-1.13 -1.27,-1.7 -1.41,-0.81 -2.57,-1.5 -3.48,-2.06 0.12,-0.7 0.19,-1.18 0.19,-1.45 0,-0.29 -0.07,-0.91 -0.19,-1.88 4.85,0 7.99,-3.38 9.41,-10.12 1.42,-6.76 3.47,-10.13 6.12,-10.13 1.16,0 2.09,0.51 2.8,1.52 0.72,1.01 1.08,2.39 1.08,4.15 0,1.35 -0.22,2.81 -0.64,4.41 -0.42,1.58 -0.98,3.35 -1.69,5.31 V 104 h 3.97 3.78 2.33 z m 78.07,27.27 c -0.77,3.78 -2.8,7.53 -6.11,11.25 -3.94,4.5 -8.12,6.75 -12.51,6.75 -2.52,0 -4.75,-1.22 -6.69,-3.66 -1.04,-1.31 -1.92,-2.84 -2.62,-4.59 h -2.61 c -1.63,2.31 -3.15,4 -4.57,5.06 -2.91,2.13 -6.47,3.19 -10.67,3.19 -4.46,0 -8.04,-1.76 -10.76,-5.28 -2.46,-3.19 -3.69,-7.02 -3.69,-11.5 0,-7.35 3.3,-14.01 9.89,-19.95 5.76,-5.18 10.94,-7.77 15.53,-7.77 2,0 4.07,0.63 6.2,1.87 2.14,1.25 3.76,2.67 4.85,4.29 1.29,-1.17 2.3,-2.01 3.01,-2.52 2.26,-1.69 4.11,-2.53 5.54,-2.53 1.15,0 1.86,0.32 2.12,0.95 0.26,0.64 0.39,1.72 0.39,3.24 0,0.26 -0.86,3.82 -2.58,10.68 -1.71,6.86 -2.56,11.33 -2.56,13.43 v 10.09 c 5.1,-0.52 8.72,-2.7 10.86,-6.55 2.13,-3.84 4.46,-5.99 6.98,-6.45 z m -26.28,-14.64 c 0,-2.16 -0.54,-3.84 -1.61,-5.05 -1.06,-1.2 -2.79,-1.81 -5.18,-1.81 -3.05,0 -5.89,2.45 -8.54,7.36 -1.81,3.4 -3.49,7.94 -5.04,13.62 -0.59,2.5 -1.17,4.95 -1.75,7.36 0,1.3 0.83,2.69 2.51,4.18 0.52,0.46 1.4,1.07 2.63,1.84 4.39,0 8.41,-3.28 12.03,-9.84 3.3,-6.01 4.95,-11.9 4.95,-17.66 z m 161,-55.02 c -4.78,6.66 -8.59,14.97 -11.43,24.93 -1.94,6.73 -3.58,14.84 -4.91,24.32 -1.32,9.5 -2.18,14.82 -2.56,15.97 V 140 h 2.42 c 3.24,0 6.15,-1.32 8.73,-3.97 2.59,-2.65 4.91,-3.98 6.99,-3.98 0,4.78 -2.62,8.1 -7.86,9.97 -2.65,0.89 -5.27,1.76 -7.86,2.59 -1.48,0.64 -2.29,2.36 -2.42,5.17 -0.13,2.81 -2.23,4.22 -6.3,4.22 -2.84,0 -4.63,-0.42 -5.34,-1.27 -0.71,-0.85 -1.07,-2.53 -1.07,-5.06 v -1.73 c 0,-0.62 0.04,-1.26 0.1,-1.94 -4.08,0 -8.57,-1.33 -13.49,-4 -4.91,-2.66 -7.76,-4 -8.53,-4 -1.29,1.54 -2.55,3.09 -3.78,4.62 -3.24,3.54 -6.64,6.42 -10.19,8.66 -4.98,3.15 -9.79,4.72 -14.45,4.72 h -7.86 c -4.34,0 -8.34,-1.53 -12.03,-4.59 -4.07,-3.19 -6.11,-7.01 -6.11,-11.47 0,-6.79 2.88,-10.19 8.62,-10.19 1.43,0 2.76,0.45 3.99,1.36 1.55,1.17 2.33,2.56 2.33,4.17 -1.03,1.81 -1.96,3.5 -2.77,5.05 -0.8,1.55 -1.2,3.01 -1.2,4.36 0,1.36 0.77,2.66 2.33,3.89 2,1.62 4.65,2.42 7.95,2.42 4.84,0 10.13,-2.61 15.84,-7.83 5.73,-5.22 8.6,-10.27 8.6,-15.14 -0.71,-1.36 -1.23,-2.5 -1.55,-3.41 -1.04,-2.71 -1.56,-5.24 -1.56,-7.59 0,-5.38 1.19,-8.88 3.59,-10.5 2.26,-1.36 4.56,-2.73 6.89,-4.09 2.46,-2.79 3.69,-8.21 3.69,-16.25 v -11.1 c 0,-4.34 -1.42,-7.39 -4.27,-9.14 -2.07,-1.3 -5.11,-1.95 -9.12,-1.95 -6.46,0 -12.02,3.42 -16.67,10.27 -3.63,5.38 -5.44,9.8 -5.44,13.26 0,2.79 1.02,5.24 3.05,7.33 2.04,2.09 4.45,3.14 7.23,3.14 1.55,0 2.81,-0.26 3.78,-0.78 0.07,-0.06 1.42,-1.35 4.08,-3.88 h 3.2 c 0.07,0.27 0.1,0.49 0.1,0.68 v 0.68 c -0.08,0.91 -0.11,1.49 -0.11,1.74 0,4.24 -1.33,7.73 -3.99,10.47 -2.64,2.73 -6.07,4.09 -10.28,4.09 -4.9,0 -9.04,-2 -12.4,-6 -2.72,-3.22 -4.08,-6.27 -4.08,-9.17 v -6.39 c 0,-5.46 3.39,-11.83 10.19,-19.11 C 339.07,60.78 345.66,57 351.8,57 h 7.08 c 6.28,0 11.45,2.65 15.53,7.95 3.81,4.91 5.71,10.66 5.71,17.25 0,2.53 -0.33,5.64 -1.01,9.36 -0.68,3.71 -1.37,7.44 -2.08,11.19 0,0.97 1.65,3.55 4.94,7.75 2.26,2.84 4.3,6.01 6.11,9.5 2.84,-2.46 5.27,-8.5 7.28,-18.14 2.58,-12.41 4.68,-20.56 6.3,-24.44 3.62,-8.66 9.05,-13.9 16.29,-15.72 z M 386.44,139 v -8.22 c -1.82,-4.94 -3.17,-8.52 -4.08,-10.75 -1.68,-3.92 -4.01,-6.94 -6.98,-9.03 -1.11,4.53 -2.39,8.66 -3.85,12.38 -1.45,3.71 -2.79,6.18 -4.01,7.4 l 14.26,8.22 z m -26,-29.91 c -0.65,0.16 -1.19,0.37 -1.61,0.64 -0.42,0.27 -0.95,0.69 -1.6,1.27 v 5.53 c 1.29,-1.3 2.15,-2.44 2.57,-3.41 0.42,-0.96 0.64,-2.31 0.64,-4.03 z m 111.4,29.72 c -2.65,3.05 -5.3,6.05 -7.95,9.02 -4.46,4.12 -9.15,6.17 -14.06,6.17 h -16.99 c -3.49,0 -6.75,-1.3 -9.79,-3.91 -2.71,-3.25 -5.39,-6.5 -8.05,-9.75 v -9.36 c 0,-4.28 3.33,-9.42 9.98,-15.4 5.06,-4.55 10.78,-6.83 17.18,-6.83 5.88,0 10.54,1.83 13.96,5.48 3.17,3.4 4.76,7.84 4.76,13.32 0,3.59 -0.84,7.06 -2.52,10.39 -1.68,3.32 -4.52,7.01 -8.53,11.06 h 3.39 c 6.73,-3.49 10.93,-6.24 12.61,-8.25 3.04,-3.75 5.05,-5.82 6.01,-6.2 z m -22.01,-9.54 v -6.88 c 0,-2.16 -0.81,-4.13 -2.44,-5.94 -1.62,-1.8 -3.62,-2.7 -6,-2.7 -3.5,0 -6.66,2.26 -9.47,6.78 -2.81,4.51 -4.22,9.13 -4.22,13.85 0,3.99 0.49,7.23 1.46,9.71 1.29,3.28 3.36,4.91 6.22,4.91 4,0 7.5,-2.32 10.46,-6.97 2.66,-4.19 3.99,-8.44 3.99,-12.76 z m 57.42,3.04 c -0.97,0.7 -1.91,1.4 -2.81,2.11 -0.71,0.39 -1.81,0.58 -3.3,0.58 -3.24,0 -5.89,-1.57 -7.95,-4.72 l -4.47,-7.53 c -4.01,6.75 -6.92,12.29 -8.74,16.61 -1.8,4.92 -3.57,9.8 -5.32,14.64 h -9.71 v -8.88 c 0.71,-2.26 1.5,-7.06 2.38,-14.37 0.87,-7.32 1.83,-12.35 2.86,-15.08 1.75,-4.61 4.4,-6.92 7.95,-6.92 0.52,0 1.4,0.64 2.63,1.92 1.22,1.28 1.84,2.07 1.84,2.39 l -3.59,11.28 v 3.41 c 2.84,-2.16 6.3,-6.4 10.37,-12.73 2.66,-4.18 6.24,-6.27 10.77,-6.27 1.36,0 2.3,0.13 2.81,0.39 1.1,0.51 1.65,1.54 1.65,3.08 0,1.02 -0.87,3.39 -2.62,7.11 -1.74,3.72 -2.61,6.31 -2.61,7.78 0,1.93 1.1,3.15 3.3,3.66 2.19,0.51 3.72,1.02 4.56,1.54 z m 21.91,-24.33 c -1.3,0.41 -2.45,0.68 -3.46,0.82 -1,0.13 -1.91,0.2 -2.75,0.2 h -2.53 c -0.65,0 -1.09,0.03 -1.34,0.09 -0.46,0.13 -0.98,0.37 -1.56,0.72 -0.59,0.35 -1.69,4.23 -3.3,11.64 -1.94,8.81 -2.91,16.51 -2.91,23.11 0,1.08 0.24,1.96 0.72,2.66 0.49,0.69 1.29,1.03 2.39,1.03 0.97,0 2.33,-0.8 4.08,-2.39 2.38,-2.16 4.91,-5.45 7.56,-9.86 h 2.33 v 4.5 c -2.4,3.94 -5.13,7.05 -8.2,9.33 -3.08,2.28 -6.03,3.42 -8.88,3.42 -2.46,0 -4.62,-0.84 -6.5,-2.53 -1.87,-1.7 -2.81,-3.83 -2.81,-6.41 v -9.22 c 0,-2.25 0.77,-6.9 2.33,-13.93 0.52,-2.32 1.33,-5.68 2.42,-10.07 0,-0.56 -0.42,-1.13 -1.27,-1.7 -1.41,-0.81 -2.57,-1.5 -3.48,-2.06 0.12,-0.7 0.19,-1.18 0.19,-1.45 0,-0.29 -0.07,-0.91 -0.19,-1.88 4.85,0 7.99,-3.38 9.41,-10.12 1.42,-6.76 3.47,-10.13 6.12,-10.13 1.16,0 2.09,0.51 2.8,1.52 0.72,1.01 1.08,2.39 1.08,4.15 0,1.35 -0.22,2.81 -0.64,4.41 -0.42,1.58 -0.98,3.35 -1.69,5.31 V 104 h 3.97 3.78 2.33 z m 55.07,27.27 c -0.77,3.78 -2.8,7.53 -6.11,11.25 -3.94,4.5 -8.12,6.75 -12.51,6.75 -2.52,0 -4.75,-1.22 -6.69,-3.66 -1.04,-1.31 -1.92,-2.84 -2.62,-4.59 h -2.61 c -1.63,2.31 -3.15,4 -4.57,5.06 -2.91,2.13 -6.47,3.19 -10.67,3.19 -4.46,0 -8.04,-1.76 -10.76,-5.28 -2.46,-3.19 -3.69,-7.02 -3.69,-11.5 0,-7.35 3.3,-14.01 9.89,-19.95 5.76,-5.18 10.94,-7.77 15.53,-7.77 2,0 4.07,0.63 6.2,1.87 2.14,1.25 3.76,2.67 4.85,4.29 1.29,-1.17 2.3,-2.01 3.01,-2.52 2.26,-1.69 4.11,-2.53 5.54,-2.53 1.15,0 1.86,0.32 2.12,0.95 0.26,0.64 0.39,1.72 0.39,3.24 0,0.26 -0.86,3.82 -2.58,10.68 -1.71,6.86 -2.56,11.33 -2.56,13.43 v 10.09 c 5.1,-0.52 8.72,-2.7 10.86,-6.55 2.13,-3.84 4.46,-5.99 6.98,-6.45 z m -26.28,-14.64 c 0,-2.16 -0.54,-3.84 -1.61,-5.05 -1.06,-1.2 -2.79,-1.81 -5.18,-1.81 -3.05,0 -5.89,2.45 -8.54,7.36 -1.81,3.4 -3.49,7.94 -5.04,13.62 -0.59,2.5 -1.17,4.95 -1.75,7.36 0,1.3 0.83,2.69 2.51,4.18 0.52,0.46 1.4,1.07 2.63,1.84 4.39,0 8.41,-3.28 12.03,-9.84 3.3,-6.01 4.95,-11.9 4.95,-17.66 z"
     style="fill:#0a0a0a;fill-opacity:1;stroke:#0a0a0a;stroke-width:0.3;stroke-dasharray:none;stroke-opacity:1"
     sodipodi:nodetypes="ccsccscsscccsscscscsscscccscscsccccccsccccccscssscccsscscsccccccscccsscsccscsccscscccscsccccsccsscccscscccccscssccccsccscscccccccccsccccscscscccscscscccscsccccccscccccsccccssssscccccsscsscccscscccsccsscscscscccscscscsscsscscccccccccccccccccsccccccssccscscsccccccsscscscscsccsccccccccscccccscscsccccsscccscscccccscssccccsccscscccccccccsccccscscscccscscscccscsccccccs" />
</svg>
