<?xml version="1.0" encoding="UTF-8" standalone="no"?>
<svg
   width="180"
   height="70"
   viewBox="0 0 562.49953 218.74999"
   version="1.1"
   id="svg3"
   xml:space="preserve"
   sodipodi:docname="theFlow_white.svg"
   inkscape:version="1.2.2 (b0a8486, 2022-12-01)"
   xmlns:inkscape="http://www.inkscape.org/namespaces/inkscape"
   xmlns:sodipodi="http://sodipodi.sourceforge.net/DTD/sodipodi-0.dtd"
   xmlns="http://www.w3.org/2000/svg"
   xmlns:svg="http://www.w3.org/2000/svg"><g
     id="g446"
     transform="translate(-324.1895,-203.3956)"
     style="fill:#ffffff;fill-opacity:1;stroke:#ffffff;stroke-opacity:1"><path
       id="Path"
       fill="none"
       stroke="black"
       stroke-width="1"
       d="m 361.88,301 c 0,-1.19 0.03,-2.34 0.12,-3.47 0.08,-1.13 0.12,-2.14 0.12,-3.01 0,-4.17 1.13,-7.08 3.4,-8.74 2.27,-1.66 4.7,-2.39 7.31,-2.22 2.61,0.18 4.92,1.14 6.92,2.88 2,1.74 2.74,4 2.22,6.78 0,0 -1.31,6.78 -1.31,6.78 0,0 6.26,0 6.26,0 3.31,0 5.71,0.54 7.19,1.62 1.48,1.09 2.22,2.26 2.22,3.5 0,1.26 -0.79,2.38 -2.36,3.38 -1.56,1 -3.74,1.5 -6.52,1.5 0,0 -7.83,0 -7.83,0 -0.69,6.31 -1.3,13.28 -1.82,20.91 -0.53,7.62 -0.87,14.81 -1.05,21.56 -0.18,6.75 -0.09,12.36 0.25,16.83 0.35,4.47 1.14,6.7 2.36,6.7 1.04,0 2.47,-1.56 4.3,-4.69 1.83,-3.13 3.7,-6.74 5.61,-10.83 1.91,-4.09 3.65,-8.09 5.21,-12.01 1.57,-3.92 2.62,-6.57 3.14,-7.97 0.36,-1.56 1.14,-2.6 2.35,-3.12 1.22,-0.52 2.39,-0.65 3.53,-0.4 1.13,0.27 2.09,0.88 2.88,1.83 0.78,0.96 0.91,2.22 0.39,3.78 -1.05,3.48 -2.44,8.01 -4.18,13.58 -1.74,5.56 -3.91,10.97 -6.53,16.22 -2.61,5.25 -5.75,9.84 -9.4,13.75 -3.65,3.91 -8,5.86 -13.05,5.86 -3.31,0 -6,-1.31 -8.09,-3.94 -2.09,-2.61 -3.65,-6.06 -4.69,-10.34 -1.04,-4.28 -1.7,-9.22 -1.95,-14.81 -0.26,-5.6 -0.31,-11.36 -0.13,-17.3 0.17,-5.95 0.51,-11.93 1.03,-17.95 0.52,-6.04 0.96,-11.59 1.31,-16.66 0,0 -6.26,0 -6.26,0 -2.79,0 -4.92,-0.52 -6.39,-1.58 -1.48,-1.05 -2.26,-2.19 -2.35,-3.42 -0.09,-1.23 0.56,-2.37 1.96,-3.42 1.38,-1.05 3.65,-1.58 6.78,-1.58 0,0 7.05,0 7.05,0 z m 38.78,-26.48 c 0,-4.18 1.13,-7.1 3.39,-8.75 2.25,-1.66 4.69,-2.4 7.29,-2.22 2.62,0.18 4.93,1.13 6.93,2.87 2,1.74 2.73,4 2.21,6.78 -0.34,1.22 -0.73,4.27 -1.17,9.14 -0.43,4.87 -1.01,10.78 -1.7,17.75 -0.69,6.96 -1.34,14.62 -1.95,22.97 -0.61,8.35 -1.17,16.61 -1.69,24.78 2.08,-4.52 4.38,-8.91 6.91,-13.17 2.53,-4.26 4.48,-7.35 5.87,-9.26 1.39,-1.74 3.39,-3.09 6,-4.05 2.61,-0.96 5.14,-1.39 7.58,-1.3 2.44,0.09 4.39,0.7 5.87,1.83 1.48,1.13 1.78,2.91 0.91,5.34 -0.52,1.57 -1.13,4.83 -1.83,9.79 -0.7,4.96 -1.26,10.04 -1.7,15.26 -0.43,5.22 -0.6,9.92 -0.52,14.1 0.1,4.17 0.57,6.26 1.44,6.26 1.04,0 2.39,-1.21 4.05,-3.64 1.65,-2.44 3.35,-5.35 5.09,-8.75 1.74,-3.39 3.3,-6.87 4.69,-10.44 1.39,-3.57 2.44,-6.49 3.14,-8.75 0.52,-1.56 1.34,-2.6 2.47,-3.12 1.13,-0.52 2.22,-0.69 3.26,-0.52 1.05,0.17 1.92,0.73 2.61,1.69 0.7,0.96 0.88,2.22 0.53,3.78 -0.52,2.44 -1.65,5.88 -3.39,10.31 -1.74,4.44 -3.87,8.97 -6.4,13.58 -2.53,4.61 -5.39,8.7 -8.61,12.27 -3.22,3.56 -6.48,5.69 -9.78,6.39 -3.66,0.7 -6.62,0.35 -8.88,-1.05 -2.26,-1.39 -4,-3.39 -5.22,-6 -1.22,-2.61 -2.04,-5.66 -2.48,-9.14 -0.44,-3.48 -0.62,-6.87 -0.53,-10.17 0.09,-3.31 0.36,-6.36 0.79,-9.14 0.44,-2.78 0.92,-4.87 1.44,-6.27 -0.87,0.36 -2.1,2.31 -3.67,5.88 -1.56,3.56 -3.17,7.56 -4.83,12 -1.65,4.43 -3.17,8.83 -4.56,13.18 -1.39,4.36 -2.17,7.58 -2.34,9.66 0,0.52 -0.09,0.87 -0.26,1.05 0,0 0,2.61 0,2.61 0,2.43 -1,4.3 -3.01,5.61 -2,1.3 -4.18,1.99 -6.53,2.07 -2.35,0.1 -4.43,-0.43 -6.25,-1.56 -1.83,-1.12 -2.57,-2.99 -2.22,-5.61 0.34,-4.34 0.78,-9.95 1.31,-16.83 0.53,-6.87 1.04,-14.22 1.56,-22.04 0.52,-7.83 1.04,-15.8 1.57,-23.89 0.52,-8.1 0.95,-15.62 1.29,-22.58 0.36,-6.96 0.66,-13.01 0.93,-18.14 0.25,-5.13 0.39,-8.66 0.39,-10.56 z m 103.67,66.78 c -1.4,1.9 -3.14,3.47 -5.24,4.68 -2.08,1.22 -4.34,2.21 -6.78,2.99 -2.43,0.77 -4.9,1.33 -7.43,1.69 -2.53,0.34 -4.75,0.6 -6.66,0.76 -0.52,3.64 -0.83,7.19 -0.91,10.66 -0.08,3.46 0.09,6.57 0.52,9.34 0.44,2.76 1.13,5.1 2.09,7 0.96,1.91 2.31,3.12 4.05,3.64 2.26,0.69 4.69,0.3 7.3,-1.17 2.61,-1.47 5.14,-3.5 7.57,-6.09 2.44,-2.6 4.79,-5.64 7.05,-9.1 2.26,-3.45 4.26,-6.78 6,-9.98 1.74,-3.21 3.22,-6.15 4.44,-8.83 1.22,-2.69 2,-4.63 2.36,-5.84 0.52,-1.57 1.34,-2.6 2.47,-3.11 1.13,-0.52 2.22,-0.69 3.26,-0.52 1.04,0.17 1.91,0.73 2.61,1.69 0.7,0.95 0.88,2.2 0.53,3.75 -0.35,1.04 -0.97,3.08 -1.84,6.11 -0.87,3.02 -2.13,6.44 -3.78,10.25 -1.65,3.8 -3.65,7.74 -6,11.81 -2.35,4.06 -5.17,7.78 -8.49,11.16 -3.3,3.37 -7.09,6.19 -11.36,8.43 -4.26,2.26 -9,3.38 -14.21,3.38 -6.27,0 -11.14,-2.17 -14.61,-6.5 -3.48,-4.32 -5.83,-9.77 -7.05,-16.34 -1.22,-6.57 -1.44,-13.63 -0.66,-21.16 0.78,-7.53 2.35,-14.58 4.69,-21.16 2.35,-6.57 5.31,-12.02 8.87,-16.34 3.58,-4.33 7.54,-6.5 11.9,-6.5 4.17,0 7.87,1.43 11.09,4.28 3.22,2.86 5.69,6.19 7.44,10 1.74,3.81 2.74,7.7 3,11.67 0.25,3.98 -0.48,7.1 -2.22,9.35 z m -16.19,-23.21 c -1.22,0.53 -2.53,2.75 -3.92,6.66 -1.39,3.92 -2.69,8.66 -3.91,14.22 1.92,0 3.83,-0.21 5.74,-0.64 1.91,-0.44 3.31,-1.35 4.18,-2.75 0.7,-1.04 1.13,-2.56 1.3,-4.56 0.18,-2 0.13,-4.04 -0.12,-6.13 -0.27,-2.09 -0.7,-3.83 -1.32,-5.22 -0.6,-1.39 -1.25,-1.92 -1.95,-1.58 z"
       style="fill:#ffffff;fill-opacity:1;stroke:#ffffff;stroke-width:0.3;stroke-dasharray:none;stroke-opacity:1" /><path
       id="Path #1"
       fill="none"
       stroke="#000000"
       stroke-width="1"
       d="m 616.65144,312.94374 c 2.78,0.18 5.6,1.61 8.48,4.31 2.87,2.7 4.31,5.26 4.31,7.7 0,2.61 -1.92,4.26 -5.75,4.95 0,0 -50.37,3.66 -50.37,3.66 -0.18,2.26 -0.31,5.57 -0.39,9.92 -0.09,4.36 -0.13,9.14 -0.13,14.36 0,5.22 -0.05,10.53 -0.14,15.92 -0.09,5.4 -0.39,10.32 -0.91,14.75 -0.52,4.44 -1.26,8.09 -2.21,10.96 -0.97,2.87 -2.31,4.31 -4.05,4.31 -2.78,0 -5.17,-0.83 -7.17,-2.48 -2,-1.65 -3.61,-3.56 -4.83,-5.74 -1.22,-2.18 -2.14,-4.4 -2.75,-6.66 -0.61,-2.25 -0.91,-3.91 -0.91,-4.96 0,-8.18 0.08,-16.31 0.25,-24.39 0.18,-8.1 0.53,-16.32 1.05,-24.68 0,0 -16.95,1.83 -16.95,1.83 -2.96,0.35 -4.49,-0.04 -4.58,-1.17 -0.09,-1.13 0.87,-2.48 2.87,-4.05 2,-1.57 4.7,-3.14 8.1,-4.7 3.39,-1.56 7.09,-2.61 11.09,-3.14 0,-10.96 0.13,-22.13 0.39,-33.53 0.26,-11.4 1.52,-22.84 3.78,-34.33 -13.4,0.52 -24.1,0.96 -32.11,1.31 -8,0.35 -14.35,0.61 -19.04,0.78 -4.7,0.18 -8.31,0.31 -10.83,0.39 -2.53,0.09 -5,0.13 -7.44,0.13 -4.7,0 -8.35,-0.7 -10.97,-2.09 -2.6,-1.4 -3.9,-3.06 -3.9,-4.97 0,-2.8 1.39,-4.85 4.17,-6.16 2.78,-1.31 6.17,-2.19 10.17,-2.62 4.01,-0.44 8.27,-0.66 12.8,-0.66 4.52,0 8.52,-0.18 12,-0.53 12.35,-1.22 24.7,-2.7 37.06,-4.46 12.36,-1.74 24.76,-3.36 37.2,-4.84 12.44,-1.49 24.92,-2.58 37.44,-3.28 12.53,-0.7 25.06,-0.7 37.59,0 0,0 0.27,0 0.27,0 2.08,0.36 4.47,0.88 7.17,1.58 2.7,0.7 5.27,1.7 7.7,3.01 2.44,1.31 4.53,2.88 6.27,4.72 1.74,1.84 2.61,3.97 2.61,6.41 0,2.45 -1.92,4.29 -5.75,5.51 -3.83,1.22 -10.26,2.14 -19.31,2.75 -9.05,0.62 -20.92,1.06 -35.63,1.32 -14.7,0.26 -32.83,0.74 -54.41,1.43 0.52,3.84 1.04,8.28 1.57,13.32 0.52,5.04 0.95,10.31 1.29,15.79 0.36,5.48 0.62,11.05 0.79,16.71 0.17,5.65 0.35,11 0.53,16.04 7.12,-1.38 14.34,-2.64 21.65,-3.78 7.32,-1.13 14.62,-1.35 21.93,-0.65 z m 23.06,-35.08 c 0,-4.18 1.13,-7.1 3.39,-8.75 2.26,-1.66 4.74,-2.4 7.44,-2.22 2.69,0.18 5.04,1.14 7.04,2.87 2,1.75 2.74,4 2.22,6.79 -0.34,2.09 -0.91,6.18 -1.7,12.28 -0.78,6.08 -1.53,13.08 -2.22,21 -0.69,7.91 -1.29,16.14 -1.81,24.67 -0.53,8.52 -0.83,16.39 -0.92,23.61 -0.09,7.22 0.17,13.13 0.78,17.75 0.61,4.62 1.79,6.92 3.53,6.92 1.04,0 2.47,-1.91 4.29,-5.73 1.84,-3.84 3.66,-8.19 5.49,-13.07 1.83,-4.87 3.53,-9.61 5.09,-14.22 1.56,-4.61 2.6,-7.61 3.13,-9.01 0.35,-1.56 1.14,-2.6 2.36,-3.13 1.22,-0.52 2.39,-0.64 3.51,-0.39 1.14,0.26 2.1,0.87 2.88,1.83 0.78,0.96 0.91,2.22 0.39,3.78 -1.04,3.48 -2.44,8.36 -4.17,14.63 -1.75,6.26 -3.92,12.43 -6.54,18.53 -2.6,6.09 -5.73,11.41 -9.39,15.95 -3.65,4.55 -8,6.83 -13.04,6.83 -4.7,0 -8.23,-2.5 -10.58,-7.48 -2.34,-4.98 -3.95,-11.3 -4.83,-18.96 -0.86,-7.65 -1.16,-16.18 -0.9,-25.58 0.25,-9.39 0.73,-18.57 1.42,-27.53 0.69,-8.97 1.39,-17.15 2.09,-24.54 0.7,-7.4 1.05,-13.01 1.05,-16.83 z m 59.31,101.92 c -6.44,0 -11.57,-1.65 -15.41,-4.95 -3.82,-3.32 -6.47,-7.4 -7.95,-12.27 -1.48,-4.87 -1.91,-10.18 -1.3,-15.92 0.61,-5.75 2.08,-11.02 4.43,-15.8 2.35,-4.79 5.44,-8.75 9.26,-11.87 3.83,-3.14 8.36,-4.53 13.58,-4.19 6.09,0.34 11.05,2.17 14.87,5.48 3.84,3.31 6.62,7.4 8.36,12.27 1.74,4.87 2.48,10.05 2.22,15.53 -0.26,5.48 -1.52,10.58 -3.79,15.28 -2.27,4.7 -5.44,8.62 -9.54,11.75 -4.08,3.13 -8.99,4.69 -14.73,4.69 z m 3.39,-12 c 1.91,0.18 3.48,-0.72 4.7,-2.7 1.22,-1.98 2.09,-4.55 2.61,-7.72 0.52,-3.18 0.74,-6.65 0.64,-10.42 -0.08,-3.78 -0.51,-7.3 -1.29,-10.57 -0.78,-3.27 -1.87,-6.02 -3.27,-8.25 -1.39,-2.22 -3.04,-3.34 -4.95,-3.34 -1.74,0 -3.22,1.03 -4.44,3.09 -1.22,2.06 -2.14,4.63 -2.75,7.72 -0.6,3.1 -0.91,6.49 -0.91,10.17 0,3.69 0.35,7.13 1.05,10.3 0.7,3.18 1.74,5.89 3.13,8.13 1.39,2.23 3.22,3.43 5.48,3.59 z m 64.27,-38.5 c 0.35,-2.96 1.7,-5.22 4.04,-6.78 2.35,-1.57 4.84,-2.53 7.44,-2.88 2.61,-0.34 4.92,-0.2 6.92,0.41 2,0.61 2.82,1.69 2.47,3.25 -1.39,4.88 -2.04,10.1 -1.95,15.67 0.09,5.56 0.53,10.7 1.31,15.39 0.78,4.7 1.86,8.62 3.25,11.75 1.4,3.13 2.88,4.69 4.44,4.69 1.57,0 2.97,-2.13 4.19,-6.39 1.21,-4.26 2.21,-9.17 3,-14.73 0.78,-5.58 1.43,-10.93 1.95,-16.07 0.52,-5.13 0.78,-8.66 0.78,-10.58 0,-1.73 0.65,-3.08 1.95,-4.04 1.32,-0.96 2.66,-1.44 4.05,-1.44 1.39,0 2.7,0.48 3.92,1.44 1.22,0.96 1.74,2.31 1.56,4.04 -0.18,1.05 -0.39,3.31 -0.65,6.8 -0.26,3.48 -0.74,7.48 -1.44,12 -0.69,4.52 -1.64,9.31 -2.86,14.36 -1.22,5.04 -2.79,9.63 -4.7,13.77 -1.92,4.12 -4.27,7.59 -7.05,10.39 -2.78,2.8 -6.09,4.29 -9.92,4.45 -3.65,0.34 -6.82,-0.38 -9.52,-2.16 -2.7,-1.79 -5,-4.29 -6.92,-7.51 -2.44,5 -5.22,9.1 -8.36,12.31 -3.12,3.22 -6.69,5 -10.69,5.36 -4.87,0.18 -8.79,-1.95 -11.74,-6.36 -2.97,-4.41 -5.14,-10.01 -6.54,-16.78 -1.38,-6.78 -2.16,-14.22 -2.34,-22.31 -0.18,-8.1 0.17,-15.53 1.05,-22.32 0.34,-2.95 1.73,-5.21 4.17,-6.78 2.44,-1.57 4.96,-2.53 7.56,-2.87 2.61,-0.35 4.92,-0.18 6.92,0.51 2,0.7 2.74,1.83 2.22,3.39 -1.22,4.7 -2.01,10.45 -2.36,17.24 -0.34,6.78 -0.29,13.31 0.14,19.58 0.44,6.26 1.18,11.61 2.22,16.04 1.04,4.44 2.35,6.66 3.92,6.66 1.39,0 2.78,-1.85 4.18,-5.56 1.39,-3.71 2.78,-8 4.17,-12.88 -1.92,-9.57 -2.18,-19.92 -0.78,-31.06 z m 78.03,-72.73 c 0,-3.32 1.35,-6.1 4.04,-8.36 2.7,-2.26 5.62,-3.82 8.75,-4.69 3.14,-0.88 5.92,-0.96 8.35,-0.27 2.44,0.7 3.39,2.26 2.87,4.69 -0.7,4.18 -1.65,9.75 -2.87,16.72 -1.22,6.96 -2.35,14.35 -3.39,22.19 -1.05,7.82 -1.83,15.56 -2.35,23.22 -0.52,7.65 -0.52,14.35 0,20.09 0.18,1.4 -0.3,2.48 -1.43,3.26 -1.14,0.79 -2.45,1.31 -3.93,1.57 -1.48,0.26 -2.87,0.13 -4.17,-0.39 -1.3,-0.52 -2.04,-1.48 -2.22,-2.88 -1.04,-6.08 -1.82,-12.99 -2.34,-20.73 -0.52,-7.75 -0.87,-15.24 -1.05,-22.46 -0.18,-7.21 -0.26,-13.73 -0.26,-19.56 0,-5.83 0,-9.97 0,-12.4 z m 25.84,114.04 c -0.34,4.36 -2.21,7.45 -5.61,9.28 -3.4,1.83 -6.92,2.3 -10.58,1.43 -3.48,-0.87 -6.65,-2.65 -9.53,-5.35 -2.86,-2.69 -4.12,-6.05 -3.78,-10.05 0.35,-4.53 2.05,-7.7 5.1,-9.53 3.05,-1.82 6.57,-2.47 10.57,-1.95 4,0.87 7.39,2.78 10.17,5.74 2.79,2.96 4,6.43 3.66,10.43 z"
       style="fill:#ffffff;fill-opacity:1;stroke:#ffffff;stroke-width:0.3;stroke-dasharray:none;stroke-opacity:1" /></g><sodipodi:namedview
     id="namedview10"
     pagecolor="#505050"
     bordercolor="#ffffff"
     borderopacity="1"
     inkscape:showpageshadow="0"
     inkscape:pageopacity="0"
     inkscape:pagecheckerboard="1"
     inkscape:deskcolor="#505050"
     inkscape:document-units="in"
     showgrid="false"
     inkscape:zoom="3.5183882"
     inkscape:cx="188.29645"
     inkscape:cy="114.82531"
     inkscape:window-width="1920"
     inkscape:window-height="1052"
     inkscape:window-x="1680"
     inkscape:window-y="0"
     inkscape:window-maximized="1"
     inkscape:current-layer="svg3" /><defs
     id="defs7" /></svg>
