<?xml version="1.0" encoding="UTF-8" standalone="no"?>
<!-- Created with Inkscape (http://www.inkscape.org/) -->

<svg
   width="1024"
   height="1024"
   viewBox="0 0 270.93333 270.93333"
   version="1.1"
   id="svg1019"
   xml:space="preserve"
   sodipodi:docname="video_black.svg"
   inkscape:version="1.2.2 (b0a8486, 2022-12-01)"
   xmlns:inkscape="http://www.inkscape.org/namespaces/inkscape"
   xmlns:sodipodi="http://sodipodi.sourceforge.net/DTD/sodipodi-0.dtd"
   xmlns="http://www.w3.org/2000/svg"
   xmlns:svg="http://www.w3.org/2000/svg"><sodipodi:namedview
     id="namedview1021"
     pagecolor="#505050"
     bordercolor="#ffffff"
     borderopacity="1"
     inkscape:showpageshadow="0"
     inkscape:pageopacity="0"
     inkscape:pagecheckerboard="1"
     inkscape:deskcolor="#505050"
     inkscape:document-units="mm"
     showgrid="false"
     inkscape:zoom="0.2102413"
     inkscape:cx="397.16269"
     inkscape:cy="-199.77045"
     inkscape:window-width="1920"
     inkscape:window-height="1052"
     inkscape:window-x="1680"
     inkscape:window-y="0"
     inkscape:window-maximized="1"
     inkscape:current-layer="layer1" /><defs
     id="defs1016"><style
       id="style1190">.cls-1{fill-rule:evenodd;}</style></defs><g
     inkscape:label="black"
     inkscape:groupmode="layer"
     id="layer1"
     style="display:inline"><path
       d="m 57.33876,69.128628 h 33.151904 47.224656 46.21371 31.62745 c 5.35953,0 10.23768,2.198365 13.76787,5.712546 3.5302,3.530196 5.71255,8.408344 5.71255,13.767857 v 11.441119 91.86575 11.37694 c 0,5.35952 -2.19836,10.23761 -5.71255,13.76781 -3.53019,3.53025 -8.40834,5.71254 -13.76787,5.71254 h -30.80914 c -0.25652,0.0485 -0.52944,0.0643 -0.81831,0.0643 -0.27292,0 -0.54584,-0.0182 -0.81838,-0.0643 h -44.57701 c -0.25653,0.0485 -0.52945,0.0643 -0.81832,0.0643 -0.27292,0 -0.54584,-0.0182 -0.81838,-0.0643 H 91.309047 c -0.25653,0.0485 -0.529449,0.0643 -0.818383,0.0643 -0.272906,0 -0.545826,-0.0182 -0.818383,-0.0643 H 57.33876 c -5.359514,0 -10.237608,-2.19836 -13.767858,-5.71254 -3.530195,-3.51418 -5.712492,-8.40829 -5.712492,-13.76781 V 191.9159 100.05015 88.609031 c 0,-5.359513 2.198365,-10.237661 5.712492,-13.767857 3.53025,-3.514181 8.408344,-5.712546 13.767858,-5.712546 z m 69.07985,50.129072 32.94334,22.97846 c 0.51369,0.32083 0.9788,0.77024 1.3479,1.29975 1.47623,2.1342 0.93065,5.03863 -1.18748,6.51486 l -32.81489,22.68965 c -0.80237,0.65792 -1.8454,1.0591 -2.9686,1.0591 -2.59955,0 -4.70161,-2.10212 -4.70161,-4.70161 v -46.00513 h 0.0182 c 0,-0.93071 0.27292,-1.86135 0.8344,-2.67973 1.49229,-2.11813 4.41274,-2.63165 6.53086,-1.15535 z m 62.19595,77.3598 v 16.76855 h 26.92592 c 2.77603,0 5.29528,-1.13933 7.12461,-2.9686 1.82927,-1.82931 2.9686,-4.34857 2.9686,-7.12461 v -6.67534 z m -9.38714,16.76855 V 196.6175 h -36.81049 v 16.76855 z m -46.1977,0 V 196.6175 H 95.192275 v 16.76855 z m -47.240655,0 V 196.6175 H 47.245552 v 6.67534 c 0,2.77604 1.139279,5.2953 2.968597,7.12461 1.829263,1.82927 4.348578,2.9686 7.124611,2.9686 z M 47.245552,187.23036 h 43.245112 47.224656 46.21371 41.72066 V 104.7517 H 183.92903 137.71532 90.490664 47.245552 Z M 179.22742,95.364554 V 78.515824 H 142.41693 V 95.34854 h 36.81049 z m 9.38714,-16.84873 V 95.34854 h 37.01913 v -6.739509 c 0,-2.776032 -1.13933,-5.295347 -2.9686,-7.124611 -1.82933,-1.829317 -4.34858,-2.968596 -7.12461,-2.968596 z m -55.58484,16.84873 V 78.515824 H 95.192275 V 95.34854 h 37.837445 z m -47.240655,0 V 78.515824 H 57.33876 c -2.776033,0 -5.295348,1.139279 -7.124611,2.968596 -1.829318,1.829264 -2.968597,4.348579 -2.968597,7.124611 v 6.739509 h 38.543513 z"
       id="path1179"
       style="display:inline;stroke-width:1.60464"
       inkscape:label="video" /></g><style
     type="text/css"
     id="style1151">.st0{fill-rule:evenodd;clip-rule:evenodd;}</style></svg>
