<?xml version="1.0" encoding="UTF-8" standalone="no"?>
<!-- Created with Inkscape (http://www.inkscape.org/) -->

<svg
   width="1024"
   height="1024"
   viewBox="0 0 270.93333 270.93333"
   version="1.1"
   id="svg1019"
   xml:space="preserve"
   sodipodi:docname="doc_black.svg"
   inkscape:version="1.2.2 (b0a8486, 2022-12-01)"
   xmlns:inkscape="http://www.inkscape.org/namespaces/inkscape"
   xmlns:sodipodi="http://sodipodi.sourceforge.net/DTD/sodipodi-0.dtd"
   xmlns="http://www.w3.org/2000/svg"
   xmlns:svg="http://www.w3.org/2000/svg"><sodipodi:namedview
     id="namedview1021"
     pagecolor="#505050"
     bordercolor="#ffffff"
     borderopacity="1"
     inkscape:showpageshadow="0"
     inkscape:pageopacity="0"
     inkscape:pagecheckerboard="1"
     inkscape:deskcolor="#505050"
     inkscape:document-units="mm"
     showgrid="false"
     inkscape:zoom="0.2102413"
     inkscape:cx="397.16269"
     inkscape:cy="180.7447"
     inkscape:window-width="1920"
     inkscape:window-height="1052"
     inkscape:window-x="1680"
     inkscape:window-y="0"
     inkscape:window-maximized="1"
     inkscape:current-layer="layer1" /><defs
     id="defs1016"><style
       id="style1190">.cls-1{fill-rule:evenodd;}</style></defs><g
     inkscape:label="black"
     inkscape:groupmode="layer"
     id="layer1"
     style="display:inline"><g
       id="g1687"
       inkscape:label="doc"
       style="display:inline"
       transform="translate(7.5508475,-5.0338983)"><path
         class="st0"
         d="m 125.66539,87.748557 c 2.29556,0 4.5584,0.131391 6.78839,0.393539 V 68.793479 c -1.06582,-0.393533 -2.00044,-1.016614 -2.78751,-1.803677 -1.44292,-1.442928 -2.32839,-3.410586 -2.32839,-5.607855 0,-2.180785 0.88547,-4.164865 2.32839,-5.607794 1.44294,-1.442928 3.4106,-2.328399 5.60787,-2.328399 2.18078,0 4.16486,0.885471 5.60778,2.328399 1.44294,1.442929 2.32841,3.410587 2.32841,5.607794 0,2.180846 -0.88547,4.164927 -2.32841,5.607855 -0.77064,0.77064 -1.7381,1.410144 -2.78749,1.803677 v 20.283298 c 5.27988,1.147805 10.28102,3.017056 14.90499,5.493019 v -7.4771 c 0,-1.557706 1.26259,-2.820293 2.82034,-2.820293 h 19.74215 c 0.39353,-1.000252 1.00019,-1.902085 1.75447,-2.656365 1.44299,-1.442925 3.41065,-2.328406 5.60785,-2.328406 2.18079,0 4.16488,0.885481 5.6078,2.328406 1.44299,1.442988 2.3284,3.410645 2.3284,5.60785 0,2.180794 -0.88541,4.164875 -2.3284,5.6078 -1.44292,1.442988 -3.41059,2.328398 -5.6078,2.328398 v 0 c -2.1972,0 -4.18128,-0.88541 -5.59143,-2.328398 -0.81985,-0.81985 -1.45934,-1.82004 -1.85288,-2.935061 h -16.80708 v 8.132961 c 11.74038,8.133022 20.33244,20.480072 23.57911,34.860332 h 35.81137 v -28.90815 c -0.86905,-0.39353 -1.67254,-0.95105 -2.32841,-1.62333 -1.44293,-1.44294 -2.3284,-3.410595 -2.3284,-5.6078 0,-2.180844 0.88547,-4.164862 2.3284,-5.60785 1.44293,-1.442938 3.41059,-2.32841 5.60786,-2.32841 2.18078,0 4.16486,0.885472 5.60779,2.32841 1.44293,1.442988 2.32841,3.410644 2.32841,5.60785 0,2.180781 -0.88548,4.16486 -2.32841,5.6078 -0.90184,0.90183 -2.01687,1.57412 -3.24661,1.96766 v 31.40052 c 0,1.55777 -1.26258,2.82036 -2.82034,2.82036 h -37.63147 c 0.29499,2.36119 0.44248,4.77152 0.44248,7.23112 0,3.27946 -0.27888,6.49328 -0.80342,9.6251 h 31.00701 c 0.39352,-1.06581 1.01661,-2.00044 1.80367,-2.78749 1.44293,-1.44294 3.41059,-2.32841 5.60785,-2.32841 2.18079,0 4.16487,0.88547 5.6078,2.32841 1.44293,1.44292 2.3284,3.41058 2.3284,5.60785 0,2.18078 -0.88547,4.16486 -2.3284,5.60778 -1.44293,1.44294 -3.41059,2.32841 -5.6078,2.32841 -2.18084,0 -4.16492,-0.88547 -5.60785,-2.32841 -0.77064,-0.77063 -1.41015,-1.72168 -1.80367,-2.78749 H 181.6614 c -3.6402,13.34728 -11.90436,24.77606 -22.98881,32.44992 v 3.52543 h 16.80708 c 0.39354,-1.11502 1.03304,-2.11521 1.85289,-2.93513 1.41014,-1.44292 3.41058,-2.32835 5.59142,-2.32835 v 0 c 2.19722,0 4.16488,0.88543 5.6078,2.32835 1.44299,1.44299 2.3284,3.42701 2.3284,5.60785 0,2.19721 -0.88541,4.16486 -2.3284,5.60779 -1.44292,1.443 -3.427,2.32841 -5.6078,2.32841 -2.1972,0 -4.16486,-0.88541 -5.60785,-2.32841 -0.73785,-0.73786 -1.34458,-1.63969 -1.75447,-2.6563 h -19.72578 c -1.5577,0 -2.82029,-1.26259 -2.82029,-2.8203 v -2.86955 c -4.62403,2.47603 -9.64153,4.34527 -14.90499,5.49308 v 15.6757 c 1.06575,0.39352 2.0168,1.03297 2.7875,1.80368 1.44294,1.44292 2.32841,3.427 2.32841,5.60778 0,2.19721 -0.88547,4.16487 -2.32841,5.60785 -1.44299,1.44294 -3.42701,2.32841 -5.60785,2.32841 -2.19721,0 -4.16486,-0.88547 -5.6078,-2.32841 -1.44299,-1.44298 -2.3284,-3.427 -2.3284,-5.60785 0,-2.1972 0.88541,-4.16486 2.3284,-5.60778 0.78706,-0.78707 1.72168,-1.41016 2.78751,-1.80368 v -14.72465 c -2.22999,0.26214 -4.49283,0.39352 -6.78846,0.39352 -3.427,0 -6.78838,-0.29498 -10.05141,-0.86904 v 22.18532 c 0,1.5577 -1.26258,2.82028 -2.82035,2.82028 H 81.392857 c -0.39354,1.24623 -1.06582,2.3612 -1.967668,3.24667 -1.442988,1.44294 -3.427006,2.32841 -5.607849,2.32841 -2.197206,0 -4.164862,-0.88547 -5.607788,-2.32841 -1.443001,-1.44293 -2.32841,-3.42701 -2.32841,-5.60785 0,-2.1972 0.885409,-4.16486 2.32841,-5.6078 1.442926,-1.44293 3.427006,-2.3284 5.607788,-2.3284 2.197205,0 4.164861,0.88547 5.607849,2.3284 0.672298,0.6723 1.213388,1.45936 1.623338,2.32841 H 109.9731 v -20.64404 c -5.39468,-1.5085 -10.477803,-3.7877 -15.118193,-6.7064 -0.50819,0.45923 -1.16423,0.73785 -1.90209,0.73785 H 75.80142 c -0.393526,1.03304 -1.016614,1.95124 -1.787317,2.70552 -1.442926,1.44298 -3.427006,2.32841 -5.607788,2.32841 -2.180856,0 -4.164874,-0.88543 -5.607862,-2.32841 -1.442926,-1.42657 -2.328398,-3.41059 -2.328398,-5.60779 0,-2.19721 0.885472,-4.16486 2.328398,-5.60785 1.442988,-1.44294 3.427006,-2.32841 5.607862,-2.32841 2.180782,0 4.164862,0.88547 5.607788,2.32841 0.803489,0.80348 1.442988,1.7873 1.836526,2.86949 H 88.164877 C 77.473895,180.9664 70.111575,168.11099 68.160342,153.51754 h -29.15412 v 28.92457 c 0.869048,0.39353 1.672475,0.95104 2.32841,1.62333 1.442926,1.44292 2.328397,3.41058 2.328397,5.6078 0,2.18084 -0.885471,4.16492 -2.328397,5.60785 -1.443001,1.44292 -3.410657,2.3284 -5.607863,2.3284 -2.180781,0 -4.164861,-0.88548 -5.607787,-2.3284 -1.443001,-1.42657 -2.32841,-3.41058 -2.32841,-5.60785 0,-2.1808 0.885409,-4.16488 2.32841,-5.6078 0.901833,-0.90184 2.016804,-1.57413 3.246605,-1.96766 v -31.38417 c 0,-1.55771 1.262586,-2.82028 2.820342,-2.82028 h 31.48253 c -0.03096,-0.70509 -0.03096,-1.41016 -0.03096,-2.11523 0,-5.09954 0.655874,-10.03505 1.885674,-14.74107 H 43.156562 c -0.393539,1.06582 -1.016676,2.0005 -1.803741,2.78757 -1.442926,1.44292 -3.410582,2.32835 -5.607788,2.32835 -2.180856,0 -4.164874,-0.88543 -5.607862,-2.32835 -1.442926,-1.44299 -2.328347,-3.41065 -2.328347,-5.60785 0,-2.18079 0.885421,-4.16488 2.328347,-5.6078 1.442988,-1.44299 3.410645,-2.3284 5.607862,-2.3284 2.180844,0 4.164862,0.88541 5.607788,2.3284 0.770704,0.77064 1.410202,1.72168 1.803741,2.78751 H 71.310431 C 75.114539,115.24663 81.689807,106.45773 90.101587,99.931673 V 96.914617 H 75.836033 c -0.393526,1.082185 -1.033025,2.066014 -1.836452,2.869503 -1.442988,1.44292 -3.427006,2.32835 -5.607862,2.32835 -2.180782,0 -4.164862,-0.88543 -5.607788,-2.32835 -1.442988,-1.442988 -2.32841,-3.410645 -2.32841,-5.607863 0,-2.197205 0.885422,-4.181285 2.32841,-5.607787 1.442926,-1.442988 3.427006,-2.32841 5.607788,-2.32841 2.180856,0 4.164874,0.885422 5.607862,2.32841 0.770641,0.770641 1.377355,1.688898 1.787255,2.705512 h 17.151401 c 1.55775,0 2.82034,1.262586 2.82034,2.820293 v 1.967656 C 100.153,93.421978 104.92458,91.339553 109.9585,89.912989 V 64.645036 H 81.050357 c -0.39353,0.868991 -0.95104,1.672478 -1.623328,2.328344 -1.442987,1.44299 -3.410644,2.328404 -5.607849,2.328404 -2.180794,0 -4.164875,-0.885414 -5.6078,-2.328404 -1.442988,-1.442929 -2.32841,-3.410587 -2.32841,-5.607794 0,-2.180846 0.885422,-4.164866 2.32841,-5.607856 1.442925,-1.442929 3.410582,-2.328374 5.6078,-2.328374 2.180843,0 4.164862,0.885445 5.607849,2.328374 0.901838,0.901838 1.574128,2.016864 1.967658,3.246667 h 31.400533 c 1.5577,0 2.82029,1.262585 2.82029,2.820289 v 26.792931 c 3.26302,-0.573878 6.62446,-0.86906 10.05147,-0.86906 z m -23.34956,52.224923 h 4.6404 v -0.55775 -9.23157 c 0,-5.2799 2.16442,-10.06785 5.64063,-13.54406 v 0 c 3.47622,-3.47622 8.28053,-5.64064 13.56042,-5.64064 5.27989,0 10.06784,2.16442 13.54405,5.64064 v 0 c 3.47622,3.47621 5.64064,8.28059 5.64064,13.54406 v 9.23157 0.55775 h 3.68935 c 0.81984,0 1.49214,0.6723 1.49214,1.49213 v 31.58094 c 0,0.81985 -0.6723,1.49214 -1.49214,1.49214 h -46.71549 c -0.81984,0 -1.49213,-0.67229 -1.49213,-1.49214 v -31.58094 c 0,-0.81983 0.67229,-1.49213 1.49213,-1.49213 z m 12.08471,0 h 23.46433 v -0.55775 -9.32999 c 0,-3.23018 -1.32815,-6.16531 -3.44343,-8.29694 v 0 c -2.13164,-2.13165 -5.0667,-3.44338 -8.28052,-3.44338 -3.23024,0 -6.16538,1.32816 -8.29695,3.44338 -2.13164,2.13163 -3.44343,5.06676 -3.44343,8.29694 v 9.32999 z m 11.83873,17.28261 2.36119,10.93689 -6.49327,0.0185 1.90209,-11.08445 c -1.7709,-0.57388 -3.06627,-2.22999 -3.06627,-4.19766 0,-2.42682 1.96767,-4.39447 4.39442,-4.39447 2.42676,0 4.39441,1.96765 4.39441,4.39447 0.031,2.14801 -1.49213,3.9189 -3.49257,4.32885 z"
         id="path1153"
         style="display:inline;stroke-width:1.63971"
         inkscape:label="document" /><path
         style="display:inline;fill:#000000;stroke:#000000;stroke-width:1.764"
         d="m 120.81356,103.19491 36.49576,15.1017 7.55085,31.46186 -3.77543,30.20339 -31.46186,11.32627 -25.16949,-7.55085 -17.618647,-13.84321 V 133.3983 l 12.584748,-23.91101 z"
         id="path1679" /></g></g><style
     type="text/css"
     id="style1151">.st0{fill-rule:evenodd;clip-rule:evenodd;}</style></svg>
