<?xml version="1.0" encoding="UTF-8" standalone="no"?>
<!-- Created with Inkscape (http://www.inkscape.org/) -->

<svg
   width="1024"
   height="1024"
   viewBox="0 0 270.93333 270.93333"
   version="1.1"
   id="svg1019"
   xml:space="preserve"
   inkscape:version="1.2.2 (b0a8486, 2022-12-01)"
   sodipodi:docname="drawing.svg"
   xmlns:inkscape="http://www.inkscape.org/namespaces/inkscape"
   xmlns:sodipodi="http://sodipodi.sourceforge.net/DTD/sodipodi-0.dtd"
   xmlns="http://www.w3.org/2000/svg"
   xmlns:svg="http://www.w3.org/2000/svg"><sodipodi:namedview
     id="namedview1021"
     pagecolor="#505050"
     bordercolor="#ffffff"
     borderopacity="1"
     inkscape:showpageshadow="0"
     inkscape:pageopacity="0"
     inkscape:pagecheckerboard="1"
     inkscape:deskcolor="#505050"
     inkscape:document-units="mm"
     showgrid="false"
     inkscape:zoom="0.2102413"
     inkscape:cx="397.16269"
     inkscape:cy="561.25984"
     inkscape:window-width="1920"
     inkscape:window-height="1052"
     inkscape:window-x="1680"
     inkscape:window-y="0"
     inkscape:window-maximized="1"
     inkscape:current-layer="layer1" /><defs
     id="defs1016"><style
       id="style1190">.cls-1{fill-rule:evenodd;}</style></defs><g
     inkscape:label="black"
     inkscape:groupmode="layer"
     id="layer1"
     style="display:none"><g
       style="clip-rule:evenodd;display:none;fill-rule:evenodd;image-rendering:optimizeQuality;shape-rendering:geometricPrecision;text-rendering:geometricPrecision"
       id="g1149"
       transform="matrix(0.32842665,0,0,0.32842665,58.365078,61.82208)"
       inkscape:label="text"><path
         fill-rule="nonzero"
         d="M 434,96.72 H 270.77 V 512.51 H 160.98 V 96.72 H 0 V 0 h 434 z"
         id="path1140" /></g><g
       id="g1687"
       inkscape:label="doc"
       style="display:none"
       transform="translate(7.5508475,-5.0338983)"><path
         class="st0"
         d="m 125.66539,87.748557 c 2.29556,0 4.5584,0.131391 6.78839,0.393539 V 68.793479 c -1.06582,-0.393533 -2.00044,-1.016614 -2.78751,-1.803677 -1.44292,-1.442928 -2.32839,-3.410586 -2.32839,-5.607855 0,-2.180785 0.88547,-4.164865 2.32839,-5.607794 1.44294,-1.442928 3.4106,-2.328399 5.60787,-2.328399 2.18078,0 4.16486,0.885471 5.60778,2.328399 1.44294,1.442929 2.32841,3.410587 2.32841,5.607794 0,2.180846 -0.88547,4.164927 -2.32841,5.607855 -0.77064,0.77064 -1.7381,1.410144 -2.78749,1.803677 v 20.283298 c 5.27988,1.147805 10.28102,3.017056 14.90499,5.493019 v -7.4771 c 0,-1.557706 1.26259,-2.820293 2.82034,-2.820293 h 19.74215 c 0.39353,-1.000252 1.00019,-1.902085 1.75447,-2.656365 1.44299,-1.442925 3.41065,-2.328406 5.60785,-2.328406 2.18079,0 4.16488,0.885481 5.6078,2.328406 1.44299,1.442988 2.3284,3.410645 2.3284,5.60785 0,2.180794 -0.88541,4.164875 -2.3284,5.6078 -1.44292,1.442988 -3.41059,2.328398 -5.6078,2.328398 v 0 c -2.1972,0 -4.18128,-0.88541 -5.59143,-2.328398 -0.81985,-0.81985 -1.45934,-1.82004 -1.85288,-2.935061 h -16.80708 v 8.132961 c 11.74038,8.133022 20.33244,20.480072 23.57911,34.860332 h 35.81137 v -28.90815 c -0.86905,-0.39353 -1.67254,-0.95105 -2.32841,-1.62333 -1.44293,-1.44294 -2.3284,-3.410595 -2.3284,-5.6078 0,-2.180844 0.88547,-4.164862 2.3284,-5.60785 1.44293,-1.442938 3.41059,-2.32841 5.60786,-2.32841 2.18078,0 4.16486,0.885472 5.60779,2.32841 1.44293,1.442988 2.32841,3.410644 2.32841,5.60785 0,2.180781 -0.88548,4.16486 -2.32841,5.6078 -0.90184,0.90183 -2.01687,1.57412 -3.24661,1.96766 v 31.40052 c 0,1.55777 -1.26258,2.82036 -2.82034,2.82036 h -37.63147 c 0.29499,2.36119 0.44248,4.77152 0.44248,7.23112 0,3.27946 -0.27888,6.49328 -0.80342,9.6251 h 31.00701 c 0.39352,-1.06581 1.01661,-2.00044 1.80367,-2.78749 1.44293,-1.44294 3.41059,-2.32841 5.60785,-2.32841 2.18079,0 4.16487,0.88547 5.6078,2.32841 1.44293,1.44292 2.3284,3.41058 2.3284,5.60785 0,2.18078 -0.88547,4.16486 -2.3284,5.60778 -1.44293,1.44294 -3.41059,2.32841 -5.6078,2.32841 -2.18084,0 -4.16492,-0.88547 -5.60785,-2.32841 -0.77064,-0.77063 -1.41015,-1.72168 -1.80367,-2.78749 H 181.6614 c -3.6402,13.34728 -11.90436,24.77606 -22.98881,32.44992 v 3.52543 h 16.80708 c 0.39354,-1.11502 1.03304,-2.11521 1.85289,-2.93513 1.41014,-1.44292 3.41058,-2.32835 5.59142,-2.32835 v 0 c 2.19722,0 4.16488,0.88543 5.6078,2.32835 1.44299,1.44299 2.3284,3.42701 2.3284,5.60785 0,2.19721 -0.88541,4.16486 -2.3284,5.60779 -1.44292,1.443 -3.427,2.32841 -5.6078,2.32841 -2.1972,0 -4.16486,-0.88541 -5.60785,-2.32841 -0.73785,-0.73786 -1.34458,-1.63969 -1.75447,-2.6563 h -19.72578 c -1.5577,0 -2.82029,-1.26259 -2.82029,-2.8203 v -2.86955 c -4.62403,2.47603 -9.64153,4.34527 -14.90499,5.49308 v 15.6757 c 1.06575,0.39352 2.0168,1.03297 2.7875,1.80368 1.44294,1.44292 2.32841,3.427 2.32841,5.60778 0,2.19721 -0.88547,4.16487 -2.32841,5.60785 -1.44299,1.44294 -3.42701,2.32841 -5.60785,2.32841 -2.19721,0 -4.16486,-0.88547 -5.6078,-2.32841 -1.44299,-1.44298 -2.3284,-3.427 -2.3284,-5.60785 0,-2.1972 0.88541,-4.16486 2.3284,-5.60778 0.78706,-0.78707 1.72168,-1.41016 2.78751,-1.80368 v -14.72465 c -2.22999,0.26214 -4.49283,0.39352 -6.78846,0.39352 -3.427,0 -6.78838,-0.29498 -10.05141,-0.86904 v 22.18532 c 0,1.5577 -1.26258,2.82028 -2.82035,2.82028 H 81.392857 c -0.39354,1.24623 -1.06582,2.3612 -1.967668,3.24667 -1.442988,1.44294 -3.427006,2.32841 -5.607849,2.32841 -2.197206,0 -4.164862,-0.88547 -5.607788,-2.32841 -1.443001,-1.44293 -2.32841,-3.42701 -2.32841,-5.60785 0,-2.1972 0.885409,-4.16486 2.32841,-5.6078 1.442926,-1.44293 3.427006,-2.3284 5.607788,-2.3284 2.197205,0 4.164861,0.88547 5.607849,2.3284 0.672298,0.6723 1.213388,1.45936 1.623338,2.32841 H 109.9731 v -20.64404 c -5.39468,-1.5085 -10.477803,-3.7877 -15.118193,-6.7064 -0.50819,0.45923 -1.16423,0.73785 -1.90209,0.73785 H 75.80142 c -0.393526,1.03304 -1.016614,1.95124 -1.787317,2.70552 -1.442926,1.44298 -3.427006,2.32841 -5.607788,2.32841 -2.180856,0 -4.164874,-0.88543 -5.607862,-2.32841 -1.442926,-1.42657 -2.328398,-3.41059 -2.328398,-5.60779 0,-2.19721 0.885472,-4.16486 2.328398,-5.60785 1.442988,-1.44294 3.427006,-2.32841 5.607862,-2.32841 2.180782,0 4.164862,0.88547 5.607788,2.32841 0.803489,0.80348 1.442988,1.7873 1.836526,2.86949 H 88.164877 C 77.473895,180.9664 70.111575,168.11099 68.160342,153.51754 h -29.15412 v 28.92457 c 0.869048,0.39353 1.672475,0.95104 2.32841,1.62333 1.442926,1.44292 2.328397,3.41058 2.328397,5.6078 0,2.18084 -0.885471,4.16492 -2.328397,5.60785 -1.443001,1.44292 -3.410657,2.3284 -5.607863,2.3284 -2.180781,0 -4.164861,-0.88548 -5.607787,-2.3284 -1.443001,-1.42657 -2.32841,-3.41058 -2.32841,-5.60785 0,-2.1808 0.885409,-4.16488 2.32841,-5.6078 0.901833,-0.90184 2.016804,-1.57413 3.246605,-1.96766 v -31.38417 c 0,-1.55771 1.262586,-2.82028 2.820342,-2.82028 h 31.48253 c -0.03096,-0.70509 -0.03096,-1.41016 -0.03096,-2.11523 0,-5.09954 0.655874,-10.03505 1.885674,-14.74107 H 43.156562 c -0.393539,1.06582 -1.016676,2.0005 -1.803741,2.78757 -1.442926,1.44292 -3.410582,2.32835 -5.607788,2.32835 -2.180856,0 -4.164874,-0.88543 -5.607862,-2.32835 -1.442926,-1.44299 -2.328347,-3.41065 -2.328347,-5.60785 0,-2.18079 0.885421,-4.16488 2.328347,-5.6078 1.442988,-1.44299 3.410645,-2.3284 5.607862,-2.3284 2.180844,0 4.164862,0.88541 5.607788,2.3284 0.770704,0.77064 1.410202,1.72168 1.803741,2.78751 H 71.310431 C 75.114539,115.24663 81.689807,106.45773 90.101587,99.931673 V 96.914617 H 75.836033 c -0.393526,1.082185 -1.033025,2.066014 -1.836452,2.869503 -1.442988,1.44292 -3.427006,2.32835 -5.607862,2.32835 -2.180782,0 -4.164862,-0.88543 -5.607788,-2.32835 -1.442988,-1.442988 -2.32841,-3.410645 -2.32841,-5.607863 0,-2.197205 0.885422,-4.181285 2.32841,-5.607787 1.442926,-1.442988 3.427006,-2.32841 5.607788,-2.32841 2.180856,0 4.164874,0.885422 5.607862,2.32841 0.770641,0.770641 1.377355,1.688898 1.787255,2.705512 h 17.151401 c 1.55775,0 2.82034,1.262586 2.82034,2.820293 v 1.967656 C 100.153,93.421978 104.92458,91.339553 109.9585,89.912989 V 64.645036 H 81.050357 c -0.39353,0.868991 -0.95104,1.672478 -1.623328,2.328344 -1.442987,1.44299 -3.410644,2.328404 -5.607849,2.328404 -2.180794,0 -4.164875,-0.885414 -5.6078,-2.328404 -1.442988,-1.442929 -2.32841,-3.410587 -2.32841,-5.607794 0,-2.180846 0.885422,-4.164866 2.32841,-5.607856 1.442925,-1.442929 3.410582,-2.328374 5.6078,-2.328374 2.180843,0 4.164862,0.885445 5.607849,2.328374 0.901838,0.901838 1.574128,2.016864 1.967658,3.246667 h 31.400533 c 1.5577,0 2.82029,1.262585 2.82029,2.820289 v 26.792931 c 3.26302,-0.573878 6.62446,-0.86906 10.05147,-0.86906 z m -23.34956,52.224923 h 4.6404 v -0.55775 -9.23157 c 0,-5.2799 2.16442,-10.06785 5.64063,-13.54406 v 0 c 3.47622,-3.47622 8.28053,-5.64064 13.56042,-5.64064 5.27989,0 10.06784,2.16442 13.54405,5.64064 v 0 c 3.47622,3.47621 5.64064,8.28059 5.64064,13.54406 v 9.23157 0.55775 h 3.68935 c 0.81984,0 1.49214,0.6723 1.49214,1.49213 v 31.58094 c 0,0.81985 -0.6723,1.49214 -1.49214,1.49214 h -46.71549 c -0.81984,0 -1.49213,-0.67229 -1.49213,-1.49214 v -31.58094 c 0,-0.81983 0.67229,-1.49213 1.49213,-1.49213 z m 12.08471,0 h 23.46433 v -0.55775 -9.32999 c 0,-3.23018 -1.32815,-6.16531 -3.44343,-8.29694 v 0 c -2.13164,-2.13165 -5.0667,-3.44338 -8.28052,-3.44338 -3.23024,0 -6.16538,1.32816 -8.29695,3.44338 -2.13164,2.13163 -3.44343,5.06676 -3.44343,8.29694 v 9.32999 z m 11.83873,17.28261 2.36119,10.93689 -6.49327,0.0185 1.90209,-11.08445 c -1.7709,-0.57388 -3.06627,-2.22999 -3.06627,-4.19766 0,-2.42682 1.96767,-4.39447 4.39442,-4.39447 2.42676,0 4.39441,1.96765 4.39441,4.39447 0.031,2.14801 -1.49213,3.9189 -3.49257,4.32885 z"
         id="path1153"
         style="display:inline;stroke-width:1.63971"
         inkscape:label="document" /><path
         style="display:inline;fill:#000000;stroke:#000000;stroke-width:1.764"
         d="m 120.81356,103.19491 36.49576,15.1017 7.55085,31.46186 -3.77543,30.20339 -31.46186,11.32627 -25.16949,-7.55085 -17.618647,-13.84321 V 133.3983 l 12.584748,-23.91101 z"
         id="path1679" /></g><g
       id="g1177"
       transform="matrix(2.6731171,0,0,2.6731171,32.856813,38.047791)"
       style="display:none"
       inkscape:label="audio"><path
         d="M 39.389,13.769 22.235,28.606 H 6 v 19.093 h 15.989 l 17.4,15.051 z"
         style="fill:#000000;stroke:#000000;stroke-width:5;stroke-linejoin:round;stroke-opacity:1"
         id="path1165" /><path
         d="M 48,27.6 A 19.5,19.5 0 0 1 48,49 m 7.1,-28.5 a 30,30 0 0 1 0,35.6 M 61.6,14 a 38.8,38.8 0 0 1 0,48.6"
         style="fill:none;stroke:#000000;stroke-width:5;stroke-linecap:round;stroke-opacity:1"
         id="path1167" /></g><path
       d="m 57.33876,69.128628 h 33.151904 47.224656 46.21371 31.62745 c 5.35953,0 10.23768,2.198365 13.76787,5.712546 3.5302,3.530196 5.71255,8.408344 5.71255,13.767857 v 11.441119 91.86575 11.37694 c 0,5.35952 -2.19836,10.23761 -5.71255,13.76781 -3.53019,3.53025 -8.40834,5.71254 -13.76787,5.71254 h -30.80914 c -0.25652,0.0485 -0.52944,0.0643 -0.81831,0.0643 -0.27292,0 -0.54584,-0.0182 -0.81838,-0.0643 h -44.57701 c -0.25653,0.0485 -0.52945,0.0643 -0.81832,0.0643 -0.27292,0 -0.54584,-0.0182 -0.81838,-0.0643 H 91.309047 c -0.25653,0.0485 -0.529449,0.0643 -0.818383,0.0643 -0.272906,0 -0.545826,-0.0182 -0.818383,-0.0643 H 57.33876 c -5.359514,0 -10.237608,-2.19836 -13.767858,-5.71254 -3.530195,-3.51418 -5.712492,-8.40829 -5.712492,-13.76781 V 191.9159 100.05015 88.609031 c 0,-5.359513 2.198365,-10.237661 5.712492,-13.767857 3.53025,-3.514181 8.408344,-5.712546 13.767858,-5.712546 z m 69.07985,50.129072 32.94334,22.97846 c 0.51369,0.32083 0.9788,0.77024 1.3479,1.29975 1.47623,2.1342 0.93065,5.03863 -1.18748,6.51486 l -32.81489,22.68965 c -0.80237,0.65792 -1.8454,1.0591 -2.9686,1.0591 -2.59955,0 -4.70161,-2.10212 -4.70161,-4.70161 v -46.00513 h 0.0182 c 0,-0.93071 0.27292,-1.86135 0.8344,-2.67973 1.49229,-2.11813 4.41274,-2.63165 6.53086,-1.15535 z m 62.19595,77.3598 v 16.76855 h 26.92592 c 2.77603,0 5.29528,-1.13933 7.12461,-2.9686 1.82927,-1.82931 2.9686,-4.34857 2.9686,-7.12461 v -6.67534 z m -9.38714,16.76855 V 196.6175 h -36.81049 v 16.76855 z m -46.1977,0 V 196.6175 H 95.192275 v 16.76855 z m -47.240655,0 V 196.6175 H 47.245552 v 6.67534 c 0,2.77604 1.139279,5.2953 2.968597,7.12461 1.829263,1.82927 4.348578,2.9686 7.124611,2.9686 z M 47.245552,187.23036 h 43.245112 47.224656 46.21371 41.72066 V 104.7517 H 183.92903 137.71532 90.490664 47.245552 Z M 179.22742,95.364554 V 78.515824 H 142.41693 V 95.34854 h 36.81049 z m 9.38714,-16.84873 V 95.34854 h 37.01913 v -6.739509 c 0,-2.776032 -1.13933,-5.295347 -2.9686,-7.124611 -1.82933,-1.829317 -4.34858,-2.968596 -7.12461,-2.968596 z m -55.58484,16.84873 V 78.515824 H 95.192275 V 95.34854 h 37.837445 z m -47.240655,0 V 78.515824 H 57.33876 c -2.776033,0 -5.295348,1.139279 -7.124611,2.968596 -1.829318,1.829264 -2.968597,4.348579 -2.968597,7.124611 v 6.739509 h 38.543513 z"
       id="path1179"
       style="display:none;stroke-width:1.60464"
       inkscape:label="video" /><path
       class="cls-1"
       d="M 182.18919,91.546111 A 19.748442,19.748442 0 1 1 162.44076,111.29455 19.748442,19.748442 0 0 1 182.18919,91.546111 Z M 229.7421,220.98104 H 44.680878 a 14.389393,14.389393 0 0 1 -10.1439,-4.24546 v 0 a 14.337195,14.337195 0 0 1 -4.2281,-10.14391 V 76.547731 a 14.371993,14.371993 0 0 1 4.21074,-10.161309 v 0 a 14.371993,14.371993 0 0 1 10.16126,-4.210683 H 229.7421 a 14.371993,14.371993 0 0 1 10.1439,4.228084 v 0 a 14.371993,14.371993 0 0 1 4.21067,10.161308 V 206.59167 a 14.337195,14.337195 0 0 1 -4.21067,10.14391 v 0 a 14.389393,14.389393 0 0 1 -10.1439,4.24546 z m -12.78866,-16.40773 -34.22487,-54.59963 a 7.8645779,7.8645779 0 0 0 -13.31061,0 l -16.16414,25.97748 17.59091,28.62215 h -7.22079 l -47.97042,-76.55783 c -4.41953,-5.89843 -11.50111,-5.44604 -15.45077,0 l -46.978672,76.55783 h -6.52483 V 78.566076 H 227.65416 V 204.57331 Z"
       id="path1196"
       style="display:none;stroke-width:1.73995"
       inkscape:label="image" /></g><g
     inkscape:label="white"
     inkscape:groupmode="layer"
     id="g1944"
     style="display:inline"><g
       style="clip-rule:evenodd;display:none;fill:#ffffff;fill-rule:evenodd;image-rendering:optimizeQuality;shape-rendering:geometricPrecision;text-rendering:geometricPrecision"
       id="g1926"
       transform="matrix(0.32842665,0,0,0.32842665,58.365078,61.82208)"
       inkscape:label="text"><path
         fill-rule="nonzero"
         d="M 434,96.72 H 270.77 V 512.51 H 160.98 V 96.72 H 0 V 0 h 434 z"
         id="path1924"
         style="display:inline;fill:#ffffff;stroke:#000000;stroke-opacity:1" /></g><g
       id="g1932"
       inkscape:label="doc"
       style="display:none"
       transform="translate(7.5508475,-5.0338983)"><path
         class="st0"
         d="m 125.66539,87.748557 c 2.29556,0 4.5584,0.131391 6.78839,0.393539 V 68.793479 c -1.06582,-0.393533 -2.00044,-1.016614 -2.78751,-1.803677 -1.44292,-1.442928 -2.32839,-3.410586 -2.32839,-5.607855 0,-2.180785 0.88547,-4.164865 2.32839,-5.607794 1.44294,-1.442928 3.4106,-2.328399 5.60787,-2.328399 2.18078,0 4.16486,0.885471 5.60778,2.328399 1.44294,1.442929 2.32841,3.410587 2.32841,5.607794 0,2.180846 -0.88547,4.164927 -2.32841,5.607855 -0.77064,0.77064 -1.7381,1.410144 -2.78749,1.803677 v 20.283298 c 5.27988,1.147805 10.28102,3.017056 14.90499,5.493019 v -7.4771 c 0,-1.557706 1.26259,-2.820293 2.82034,-2.820293 h 19.74215 c 0.39353,-1.000252 1.00019,-1.902085 1.75447,-2.656365 1.44299,-1.442925 3.41065,-2.328406 5.60785,-2.328406 2.18079,0 4.16488,0.885481 5.6078,2.328406 1.44299,1.442988 2.3284,3.410645 2.3284,5.60785 0,2.180794 -0.88541,4.164875 -2.3284,5.6078 -1.44292,1.442988 -3.41059,2.328398 -5.6078,2.328398 v 0 c -2.1972,0 -4.18128,-0.88541 -5.59143,-2.328398 -0.81985,-0.81985 -1.45934,-1.82004 -1.85288,-2.935061 h -16.80708 v 8.132961 c 11.74038,8.133022 20.33244,20.480072 23.57911,34.860332 h 35.81137 v -28.90815 c -0.86905,-0.39353 -1.67254,-0.95105 -2.32841,-1.62333 -1.44293,-1.44294 -2.3284,-3.410595 -2.3284,-5.6078 0,-2.180844 0.88547,-4.164862 2.3284,-5.60785 1.44293,-1.442938 3.41059,-2.32841 5.60786,-2.32841 2.18078,0 4.16486,0.885472 5.60779,2.32841 1.44293,1.442988 2.32841,3.410644 2.32841,5.60785 0,2.180781 -0.88548,4.16486 -2.32841,5.6078 -0.90184,0.90183 -2.01687,1.57412 -3.24661,1.96766 v 31.40052 c 0,1.55777 -1.26258,2.82036 -2.82034,2.82036 h -37.63147 c 0.29499,2.36119 0.44248,4.77152 0.44248,7.23112 0,3.27946 -0.27888,6.49328 -0.80342,9.6251 h 31.00701 c 0.39352,-1.06581 1.01661,-2.00044 1.80367,-2.78749 1.44293,-1.44294 3.41059,-2.32841 5.60785,-2.32841 2.18079,0 4.16487,0.88547 5.6078,2.32841 1.44293,1.44292 2.3284,3.41058 2.3284,5.60785 0,2.18078 -0.88547,4.16486 -2.3284,5.60778 -1.44293,1.44294 -3.41059,2.32841 -5.6078,2.32841 -2.18084,0 -4.16492,-0.88547 -5.60785,-2.32841 -0.77064,-0.77063 -1.41015,-1.72168 -1.80367,-2.78749 H 181.6614 c -3.6402,13.34728 -11.90436,24.77606 -22.98881,32.44992 v 3.52543 h 16.80708 c 0.39354,-1.11502 1.03304,-2.11521 1.85289,-2.93513 1.41014,-1.44292 3.41058,-2.32835 5.59142,-2.32835 v 0 c 2.19722,0 4.16488,0.88543 5.6078,2.32835 1.44299,1.44299 2.3284,3.42701 2.3284,5.60785 0,2.19721 -0.88541,4.16486 -2.3284,5.60779 -1.44292,1.443 -3.427,2.32841 -5.6078,2.32841 -2.1972,0 -4.16486,-0.88541 -5.60785,-2.32841 -0.73785,-0.73786 -1.34458,-1.63969 -1.75447,-2.6563 h -19.72578 c -1.5577,0 -2.82029,-1.26259 -2.82029,-2.8203 v -2.86955 c -4.62403,2.47603 -9.64153,4.34527 -14.90499,5.49308 v 15.6757 c 1.06575,0.39352 2.0168,1.03297 2.7875,1.80368 1.44294,1.44292 2.32841,3.427 2.32841,5.60778 0,2.19721 -0.88547,4.16487 -2.32841,5.60785 -1.44299,1.44294 -3.42701,2.32841 -5.60785,2.32841 -2.19721,0 -4.16486,-0.88547 -5.6078,-2.32841 -1.44299,-1.44298 -2.3284,-3.427 -2.3284,-5.60785 0,-2.1972 0.88541,-4.16486 2.3284,-5.60778 0.78706,-0.78707 1.72168,-1.41016 2.78751,-1.80368 v -14.72465 c -2.22999,0.26214 -4.49283,0.39352 -6.78846,0.39352 -3.427,0 -6.78838,-0.29498 -10.05141,-0.86904 v 22.18532 c 0,1.5577 -1.26258,2.82028 -2.82035,2.82028 H 81.392857 c -0.39354,1.24623 -1.06582,2.3612 -1.967668,3.24667 -1.442988,1.44294 -3.427006,2.32841 -5.607849,2.32841 -2.197206,0 -4.164862,-0.88547 -5.607788,-2.32841 -1.443001,-1.44293 -2.32841,-3.42701 -2.32841,-5.60785 0,-2.1972 0.885409,-4.16486 2.32841,-5.6078 1.442926,-1.44293 3.427006,-2.3284 5.607788,-2.3284 2.197205,0 4.164861,0.88547 5.607849,2.3284 0.672298,0.6723 1.213388,1.45936 1.623338,2.32841 H 109.9731 v -20.64404 c -5.39468,-1.5085 -10.477803,-3.7877 -15.118193,-6.7064 -0.50819,0.45923 -1.16423,0.73785 -1.90209,0.73785 H 75.80142 c -0.393526,1.03304 -1.016614,1.95124 -1.787317,2.70552 -1.442926,1.44298 -3.427006,2.32841 -5.607788,2.32841 -2.180856,0 -4.164874,-0.88543 -5.607862,-2.32841 -1.442926,-1.42657 -2.328398,-3.41059 -2.328398,-5.60779 0,-2.19721 0.885472,-4.16486 2.328398,-5.60785 1.442988,-1.44294 3.427006,-2.32841 5.607862,-2.32841 2.180782,0 4.164862,0.88547 5.607788,2.32841 0.803489,0.80348 1.442988,1.7873 1.836526,2.86949 H 88.164877 C 77.473895,180.9664 70.111575,168.11099 68.160342,153.51754 h -29.15412 v 28.92457 c 0.869048,0.39353 1.672475,0.95104 2.32841,1.62333 1.442926,1.44292 2.328397,3.41058 2.328397,5.6078 0,2.18084 -0.885471,4.16492 -2.328397,5.60785 -1.443001,1.44292 -3.410657,2.3284 -5.607863,2.3284 -2.180781,0 -4.164861,-0.88548 -5.607787,-2.3284 -1.443001,-1.42657 -2.32841,-3.41058 -2.32841,-5.60785 0,-2.1808 0.885409,-4.16488 2.32841,-5.6078 0.901833,-0.90184 2.016804,-1.57413 3.246605,-1.96766 v -31.38417 c 0,-1.55771 1.262586,-2.82028 2.820342,-2.82028 h 31.48253 c -0.03096,-0.70509 -0.03096,-1.41016 -0.03096,-2.11523 0,-5.09954 0.655874,-10.03505 1.885674,-14.74107 H 43.156562 c -0.393539,1.06582 -1.016676,2.0005 -1.803741,2.78757 -1.442926,1.44292 -3.410582,2.32835 -5.607788,2.32835 -2.180856,0 -4.164874,-0.88543 -5.607862,-2.32835 -1.442926,-1.44299 -2.328347,-3.41065 -2.328347,-5.60785 0,-2.18079 0.885421,-4.16488 2.328347,-5.6078 1.442988,-1.44299 3.410645,-2.3284 5.607862,-2.3284 2.180844,0 4.164862,0.88541 5.607788,2.3284 0.770704,0.77064 1.410202,1.72168 1.803741,2.78751 H 71.310431 C 75.114539,115.24663 81.689807,106.45773 90.101587,99.931673 V 96.914617 H 75.836033 c -0.393526,1.082185 -1.033025,2.066014 -1.836452,2.869503 -1.442988,1.44292 -3.427006,2.32835 -5.607862,2.32835 -2.180782,0 -4.164862,-0.88543 -5.607788,-2.32835 -1.442988,-1.442988 -2.32841,-3.410645 -2.32841,-5.607863 0,-2.197205 0.885422,-4.181285 2.32841,-5.607787 1.442926,-1.442988 3.427006,-2.32841 5.607788,-2.32841 2.180856,0 4.164874,0.885422 5.607862,2.32841 0.770641,0.770641 1.377355,1.688898 1.787255,2.705512 h 17.151401 c 1.55775,0 2.82034,1.262586 2.82034,2.820293 v 1.967656 C 100.153,93.421978 104.92458,91.339553 109.9585,89.912989 V 64.645036 H 81.050357 c -0.39353,0.868991 -0.95104,1.672478 -1.623328,2.328344 -1.442987,1.44299 -3.410644,2.328404 -5.607849,2.328404 -2.180794,0 -4.164875,-0.885414 -5.6078,-2.328404 -1.442988,-1.442929 -2.32841,-3.410587 -2.32841,-5.607794 0,-2.180846 0.885422,-4.164866 2.32841,-5.607856 1.442925,-1.442929 3.410582,-2.328374 5.6078,-2.328374 2.180843,0 4.164862,0.885445 5.607849,2.328374 0.901838,0.901838 1.574128,2.016864 1.967658,3.246667 h 31.400533 c 1.5577,0 2.82029,1.262585 2.82029,2.820289 v 26.792931 c 3.26302,-0.573878 6.62446,-0.86906 10.05147,-0.86906 z m -23.34956,52.224923 h 4.6404 v -0.55775 -9.23157 c 0,-5.2799 2.16442,-10.06785 5.64063,-13.54406 v 0 c 3.47622,-3.47622 8.28053,-5.64064 13.56042,-5.64064 5.27989,0 10.06784,2.16442 13.54405,5.64064 v 0 c 3.47622,3.47621 5.64064,8.28059 5.64064,13.54406 v 9.23157 0.55775 h 3.68935 c 0.81984,0 1.49214,0.6723 1.49214,1.49213 v 31.58094 c 0,0.81985 -0.6723,1.49214 -1.49214,1.49214 h -46.71549 c -0.81984,0 -1.49213,-0.67229 -1.49213,-1.49214 v -31.58094 c 0,-0.81983 0.67229,-1.49213 1.49213,-1.49213 z m 12.08471,0 h 23.46433 v -0.55775 -9.32999 c 0,-3.23018 -1.32815,-6.16531 -3.44343,-8.29694 v 0 c -2.13164,-2.13165 -5.0667,-3.44338 -8.28052,-3.44338 -3.23024,0 -6.16538,1.32816 -8.29695,3.44338 -2.13164,2.13163 -3.44343,5.06676 -3.44343,8.29694 v 9.32999 z m 11.83873,17.28261 2.36119,10.93689 -6.49327,0.0185 1.90209,-11.08445 c -1.7709,-0.57388 -3.06627,-2.22999 -3.06627,-4.19766 0,-2.42682 1.96767,-4.39447 4.39442,-4.39447 2.42676,0 4.39441,1.96765 4.39441,4.39447 0.031,2.14801 -1.49213,3.9189 -3.49257,4.32885 z"
         id="path1928"
         style="display:inline;fill:#ffffff;stroke-width:1.63971"
         inkscape:label="document" /><path
         style="display:inline;fill:#ffffff;stroke:#000000;stroke-width:1.764"
         d="m 120.81356,103.19491 36.49576,15.1017 7.55085,31.46186 -3.77543,30.20339 -31.46186,11.32627 -25.16949,-7.55085 -17.618647,-13.84321 V 133.3983 l 12.584748,-23.91101 z"
         id="path1930" /></g><g
       id="g1938"
       transform="matrix(2.6731171,0,0,2.6731171,32.856813,38.047791)"
       style="display:none"
       inkscape:label="audio"><path
         d="M 39.389,13.769 22.235,28.606 H 6 v 19.093 h 15.989 l 17.4,15.051 z"
         style="fill:#ffffff;fill-opacity:1;stroke:#ffffff;stroke-width:5;stroke-linejoin:round;stroke-opacity:1"
         id="path1934" /><path
         d="M 48,27.6 A 19.5,19.5 0 0 1 48,49 m 7.1,-28.5 a 30,30 0 0 1 0,35.6 M 61.6,14 a 38.8,38.8 0 0 1 0,48.6"
         style="fill:none;stroke:#ffffff;stroke-width:5;stroke-linecap:round;stroke-opacity:1"
         id="path1936" /></g><path
       d="m 57.33876,69.128628 h 33.151904 47.224656 46.21371 31.62745 c 5.35953,0 10.23768,2.198365 13.76787,5.712546 3.5302,3.530196 5.71255,8.408344 5.71255,13.767857 v 11.441119 91.86575 11.37694 c 0,5.35952 -2.19836,10.23761 -5.71255,13.76781 -3.53019,3.53025 -8.40834,5.71254 -13.76787,5.71254 h -30.80914 c -0.25652,0.0485 -0.52944,0.0643 -0.81831,0.0643 -0.27292,0 -0.54584,-0.0182 -0.81838,-0.0643 h -44.57701 c -0.25653,0.0485 -0.52945,0.0643 -0.81832,0.0643 -0.27292,0 -0.54584,-0.0182 -0.81838,-0.0643 H 91.309047 c -0.25653,0.0485 -0.529449,0.0643 -0.818383,0.0643 -0.272906,0 -0.545826,-0.0182 -0.818383,-0.0643 H 57.33876 c -5.359514,0 -10.237608,-2.19836 -13.767858,-5.71254 -3.530195,-3.51418 -5.712492,-8.40829 -5.712492,-13.76781 V 191.9159 100.05015 88.609031 c 0,-5.359513 2.198365,-10.237661 5.712492,-13.767857 3.53025,-3.514181 8.408344,-5.712546 13.767858,-5.712546 z m 69.07985,50.129072 32.94334,22.97846 c 0.51369,0.32083 0.9788,0.77024 1.3479,1.29975 1.47623,2.1342 0.93065,5.03863 -1.18748,6.51486 l -32.81489,22.68965 c -0.80237,0.65792 -1.8454,1.0591 -2.9686,1.0591 -2.59955,0 -4.70161,-2.10212 -4.70161,-4.70161 v -46.00513 h 0.0182 c 0,-0.93071 0.27292,-1.86135 0.8344,-2.67973 1.49229,-2.11813 4.41274,-2.63165 6.53086,-1.15535 z m 62.19595,77.3598 v 16.76855 h 26.92592 c 2.77603,0 5.29528,-1.13933 7.12461,-2.9686 1.82927,-1.82931 2.9686,-4.34857 2.9686,-7.12461 v -6.67534 z m -9.38714,16.76855 V 196.6175 h -36.81049 v 16.76855 z m -46.1977,0 V 196.6175 H 95.192275 v 16.76855 z m -47.240655,0 V 196.6175 H 47.245552 v 6.67534 c 0,2.77604 1.139279,5.2953 2.968597,7.12461 1.829263,1.82927 4.348578,2.9686 7.124611,2.9686 z M 47.245552,187.23036 h 43.245112 47.224656 46.21371 41.72066 V 104.7517 H 183.92903 137.71532 90.490664 47.245552 Z M 179.22742,95.364554 V 78.515824 H 142.41693 V 95.34854 h 36.81049 z m 9.38714,-16.84873 V 95.34854 h 37.01913 v -6.739509 c 0,-2.776032 -1.13933,-5.295347 -2.9686,-7.124611 -1.82933,-1.829317 -4.34858,-2.968596 -7.12461,-2.968596 z m -55.58484,16.84873 V 78.515824 H 95.192275 V 95.34854 h 37.837445 z m -47.240655,0 V 78.515824 H 57.33876 c -2.776033,0 -5.295348,1.139279 -7.124611,2.968596 -1.829318,1.829264 -2.968597,4.348579 -2.968597,7.124611 v 6.739509 h 38.543513 z"
       id="path1940"
       style="display:none;fill:#ffffff;fill-opacity:1;stroke-width:1.60464"
       inkscape:label="video" /><path
       class="cls-1"
       d="M 182.18919,91.546111 A 19.748442,19.748442 0 1 1 162.44076,111.29455 19.748442,19.748442 0 0 1 182.18919,91.546111 Z M 229.7421,220.98104 H 44.680878 a 14.389393,14.389393 0 0 1 -10.1439,-4.24546 v 0 a 14.337195,14.337195 0 0 1 -4.2281,-10.14391 V 76.547731 a 14.371993,14.371993 0 0 1 4.21074,-10.161309 v 0 a 14.371993,14.371993 0 0 1 10.16126,-4.210683 H 229.7421 a 14.371993,14.371993 0 0 1 10.1439,4.228084 v 0 a 14.371993,14.371993 0 0 1 4.21067,10.161308 V 206.59167 a 14.337195,14.337195 0 0 1 -4.21067,10.14391 v 0 a 14.389393,14.389393 0 0 1 -10.1439,4.24546 z m -12.78866,-16.40773 -34.22487,-54.59963 a 7.8645779,7.8645779 0 0 0 -13.31061,0 l -16.16414,25.97748 17.59091,28.62215 h -7.22079 l -47.97042,-76.55783 c -4.41953,-5.89843 -11.50111,-5.44604 -15.45077,0 l -46.978672,76.55783 h -6.52483 V 78.566076 H 227.65416 V 204.57331 Z"
       id="path1942"
       style="display:inline;stroke-width:1.73995;fill:#ffffff"
       inkscape:label="image" /></g><style
     type="text/css"
     id="style1151">.st0{fill-rule:evenodd;clip-rule:evenodd;}</style></svg>
