<?xml version="1.0" encoding="UTF-8" standalone="no"?>
<!-- Created with Inkscape (http://www.inkscape.org/) -->

<svg
   width="1024"
   height="1024"
   viewBox="0 0 270.93333 270.93333"
   version="1.1"
   id="svg1019"
   xml:space="preserve"
   sodipodi:docname="image_black.svg"
   inkscape:version="1.2.2 (b0a8486, 2022-12-01)"
   xmlns:inkscape="http://www.inkscape.org/namespaces/inkscape"
   xmlns:sodipodi="http://sodipodi.sourceforge.net/DTD/sodipodi-0.dtd"
   xmlns="http://www.w3.org/2000/svg"
   xmlns:svg="http://www.w3.org/2000/svg"><sodipodi:namedview
     id="namedview1021"
     pagecolor="#505050"
     bordercolor="#ffffff"
     borderopacity="1"
     inkscape:showpageshadow="0"
     inkscape:pageopacity="0"
     inkscape:pagecheckerboard="1"
     inkscape:deskcolor="#505050"
     inkscape:document-units="mm"
     showgrid="false"
     inkscape:zoom="0.2102413"
     inkscape:cx="-202.14867"
     inkscape:cy="409.05379"
     inkscape:window-width="1920"
     inkscape:window-height="1052"
     inkscape:window-x="1680"
     inkscape:window-y="0"
     inkscape:window-maximized="0"
     inkscape:current-layer="layer1" /><defs
     id="defs1016"><style
       id="style1190">.cls-1{fill-rule:evenodd;}</style><style
       id="style236">.cls-1{fill-rule:evenodd;}</style></defs><g
     inkscape:label="black"
     inkscape:groupmode="layer"
     id="layer1"
     style="display:inline"><g
       id="g2688"
       transform="matrix(0.41206082,0,0,0.39634395,34.203108,37.59739)">
	<path
   d="M 466.8,451.8 H 45.2 C 19.6,451.8 0,432.2 0,406.6 V 105.4 C 0,79.8 19.6,60.2 45.2,60.2 h 421.6 c 25.6,0 45.2,19.6 45.2,45.2 v 301.2 c 0,25.6 -19.6,45.2 -45.2,45.2 z M 45.2,90.4 c -9,0 -15.1,6 -15.1,15.1 v 301.2 c 0,9 6,15.1 15.1,15.1 h 421.6 c 9,0 15.1,-6 15.1,-15.1 V 105.4 c 0,-9 -6,-15.1 -15.1,-15.1 H 45.2 Z"
   id="path2680" />
	<path
   d="m 331.3,240.9 c -33.1,0 -60.2,-27.1 -60.2,-60.2 0,-33.1 27.1,-60.2 60.2,-60.2 33.1,0 60.2,27.1 60.2,60.2 0,33.1 -27.1,60.2 -60.2,60.2 z m 0,-90.3 c -16.6,0 -30.1,13.6 -30.1,30.1 0,16.5 13.6,30.1 30.1,30.1 16.6,0 30.1,-13.6 30.1,-30.1 0,-16.5 -13.5,-30.1 -30.1,-30.1 z"
   id="path2682" />
	<polygon
   points="432.2,426.2 411.1,447.3 165.6,216.8 25.6,346.4 4.5,325.3 165.6,174.7 "
   id="polygon2684" />
	<polygon
   points="506,347.9 487.9,372 406.6,305.7 338.8,361.4 319.3,337.3 406.6,266.5 "
   id="polygon2686" />
</g></g><style
     type="text/css"
     id="style1151">.st0{fill-rule:evenodd;clip-rule:evenodd;}</style></svg>
