<?xml version="1.0" encoding="UTF-8" standalone="no"?>
<!-- Uploaded to: SVG Repo, www.svgrepo.com, Generator: SVG Repo Mixer Tools -->

<svg
   fill="#000000"
   height="800px"
   width="800px"
   version="1.1"
   id="Layer_1"
   viewBox="0 0 492.308 492.308"
   xml:space="preserve"
   sodipodi:docname="internet_white.svg"
   inkscape:version="1.2.2 (b0a8486, 2022-12-01)"
   xmlns:inkscape="http://www.inkscape.org/namespaces/inkscape"
   xmlns:sodipodi="http://sodipodi.sourceforge.net/DTD/sodipodi-0.dtd"
   xmlns="http://www.w3.org/2000/svg"
   xmlns:svg="http://www.w3.org/2000/svg"><defs
   id="defs11" /><sodipodi:namedview
   id="namedview9"
   pagecolor="#505050"
   bordercolor="#ffffff"
   borderopacity="1"
   inkscape:showpageshadow="0"
   inkscape:pageopacity="0"
   inkscape:pagecheckerboard="1"
   inkscape:deskcolor="#505050"
   showgrid="false"
   inkscape:zoom="0.295"
   inkscape:cx="262.71186"
   inkscape:cy="400"
   inkscape:window-width="1309"
   inkscape:window-height="456"
   inkscape:window-x="2013"
   inkscape:window-y="247"
   inkscape:window-maximized="0"
   inkscape:current-layer="Layer_1" />
<g
   id="g6"
   transform="matrix(0.60169491,0,0,0.60169491,91.786237,91.786236)"
   style="fill:#ffffff;fill-opacity:1;stroke:#ffffff;stroke-opacity:1">
	<g
   id="g4"
   style="fill:#ffffff;fill-opacity:1;stroke:#ffffff;stroke-opacity:1">
		<path
   d="M 246.154,0 C 110.423,0 0,110.423 0,246.154 0,381.885 110.423,492.308 246.154,492.308 381.885,492.308 492.308,381.885 492.308,246.154 492.308,110.423 381.885,0 246.154,0 Z M 180.612,29.399 C 161.299,48.169 144.929,75.114 132.824,107.844 118.863,99.736 105.745,90.067 93.594,78.946 118.243,56.437 147.876,39.317 180.612,29.399 Z M 79.471,93.043 c 14.422,13.299 30.178,24.664 46.943,34.029 -9.721,32.432 -15.507,69.49 -16.334,109.236 H 19.942 C 22.313,181.191 44.459,131.127 79.471,93.043 Z M 19.942,256 h 90.138 c 0.822,39.522 6.542,76.395 16.165,108.697 -16.826,9.417 -32.63,20.854 -47.09,34.235 C 44.322,360.889 22.306,310.954 19.942,256 Z m 73.312,157.037 c 12.19,-11.203 25.364,-20.936 39.385,-29.097 12.124,32.962 28.558,60.099 47.973,78.968 -32.89,-9.963 -62.64,-27.205 -87.358,-49.871 z m 143.054,58.671 c -34.916,-5.996 -65.985,-43.431 -85.461,-97.257 26.59,-12.365 55.469,-19.43 85.461,-20.71 z m 0,-137.9 c -32.107,1.255 -63.098,8.649 -91.668,21.594 C 135.928,325.521 130.605,291.687 129.773,256 h 106.535 z m 0,-97.5 H 129.773 c 0.837,-35.911 6.226,-69.944 15.035,-99.962 28.524,12.898 59.456,20.267 91.5,21.52 z m 0,-98.375 C 206.391,136.655 177.581,129.625 151.047,117.318 170.535,63.783 201.51,26.576 236.308,20.6 Z m 236.058,98.375 h -90.138 c -0.827,-39.747 -6.614,-76.807 -16.335,-109.24 16.766,-9.364 32.519,-20.733 46.939,-34.03 35.015,38.085 57.162,88.151 59.534,143.27 z M 398.719,78.951 c -12.151,11.118 -25.274,20.781 -39.236,28.888 -12.106,-32.728 -28.475,-59.671 -47.787,-78.441 32.738,9.919 62.373,27.042 87.023,49.553 z M 256,20.6 c 34.797,5.975 65.772,43.181 85.26,96.714 -26.538,12.308 -55.35,19.343 -85.26,20.62 z m 0,137.266 c 32.036,-1.253 62.972,-8.622 91.5,-21.522 8.809,30.019 14.198,64.052 15.035,99.963 H 256 Z M 256,256 h 106.535 c -0.832,35.688 -6.156,69.522 -14.867,99.403 C 319.094,342.456 288.099,335.062 256,333.807 Z m 0,215.708 V 353.739 c 29.985,1.281 58.866,8.349 85.46,20.715 -19.476,53.825 -50.545,91.258 -85.46,97.254 z m 55.696,-8.799 c 19.414,-18.868 35.847,-46.004 47.972,-78.965 14.023,8.16 27.201,17.887 39.392,29.087 -24.719,22.669 -54.471,39.913 -87.364,49.878 z m 101.453,-63.972 c -14.459,-13.38 -30.261,-24.82 -47.087,-34.236 9.623,-32.303 15.344,-69.177 16.166,-108.701 h 90.138 c -2.365,54.956 -24.382,104.894 -59.217,142.937 z"
   id="path2"
   style="fill:#ffffff;fill-opacity:1;stroke:#ffffff;stroke-opacity:1" />
	</g>
</g>
</svg>
