<?xml version="1.0" encoding="UTF-8" standalone="no"?>
<!-- Created with Inkscape (http://www.inkscape.org/) -->

<svg
   width="1024"
   height="1024"
   viewBox="0 0 270.93333 270.93333"
   version="1.1"
   id="svg1019"
   xml:space="preserve"
   sodipodi:docname="paint_white.svg"
   inkscape:version="1.2.2 (b0a8486, 2022-12-01)"
   xmlns:inkscape="http://www.inkscape.org/namespaces/inkscape"
   xmlns:sodipodi="http://sodipodi.sourceforge.net/DTD/sodipodi-0.dtd"
   xmlns="http://www.w3.org/2000/svg"
   xmlns:svg="http://www.w3.org/2000/svg"><sodipodi:namedview
     id="namedview1021"
     pagecolor="#505050"
     bordercolor="#ffffff"
     borderopacity="1"
     inkscape:showpageshadow="0"
     inkscape:pageopacity="0"
     inkscape:pagecheckerboard="1"
     inkscape:deskcolor="#505050"
     inkscape:document-units="mm"
     showgrid="false"
     inkscape:zoom="0.2102413"
     inkscape:cx="-449.48352"
     inkscape:cy="409.05379"
     inkscape:window-width="1920"
     inkscape:window-height="1052"
     inkscape:window-x="1680"
     inkscape:window-y="0"
     inkscape:window-maximized="0"
     inkscape:current-layer="layer1" /><defs
     id="defs1016"><style
       id="style1190">.cls-1{fill-rule:evenodd;}</style><style
       id="style236">.cls-1{fill-rule:evenodd;}</style></defs><g
     inkscape:label="black"
     inkscape:groupmode="layer"
     id="layer1"
     style="display:inline"><g
       style="opacity:1;fill:#ffffff;fill-rule:nonzero;stroke:#ffffff;stroke-width:0;stroke-linecap:butt;stroke-linejoin:miter;stroke-miterlimit:10;stroke-dasharray:none;fill-opacity:1;stroke-opacity:1"
       transform="matrix(2.2955742,0,0,2.375331,38.292897,29.654077)"
       id="g169">
	<path
   d="m 80.224,73.891 c -0.049,0.007 -0.095,0.029 -0.145,0.029 -0.029,0 -0.055,-0.014 -0.084,-0.017 -0.038,-0.001 -0.073,0.012 -0.111,0.006 -0.064,-0.009 -0.117,-0.042 -0.176,-0.063 -0.007,-0.003 -0.013,-0.004 -0.019,-0.007 -0.21,-0.078 -0.383,-0.211 -0.498,-0.393 l -8.733,-8.734 c -0.391,-0.391 -0.391,-1.023 0,-1.414 0.391,-0.391 1.023,-0.391 1.414,0 l 7.41,7.411 C 80.922,55.26 75.101,42.267 63.089,34.862 c -0.471,-0.29 -0.617,-0.906 -0.327,-1.376 0.29,-0.47 0.906,-0.616 1.376,-0.326 11.302,6.965 17.44,18.56 17.44,32.476 0,1.505 -0.08,3.04 -0.225,4.596 l 6.934,-6.934 c 0.391,-0.391 1.023,-0.391 1.414,0 0.195,0.195 0.293,0.451 0.293,0.707 0,0.256 -0.098,0.512 -0.293,0.707 l -8.914,8.914 c -0.131,0.131 -0.298,0.204 -0.475,0.247 -0.029,0.009 -0.058,0.012 -0.088,0.018 z"
   style="opacity:1;fill:#ffffff;fill-rule:nonzero;stroke:#ffffff;stroke-width:1;stroke-linecap:butt;stroke-linejoin:miter;stroke-miterlimit:10;stroke-dasharray:none;fill-opacity:1;stroke-opacity:1"
   stroke-linecap="round"
   id="path165" />
	<path
   d="m 32.153,16.912 c 10.517,2.136 19.862,8.403 23.81,15.969 0.929,1.793 1.383,3.915 1.383,6.185 0,3.564 -1.12,7.493 -3.284,11.086 -2.334,3.879 -5.582,6.906 -9.145,8.525 -3.689,1.676 -7.284,1.658 -10.124,-0.052 -5.733,-3.451 -6.419,-12.871 -1.529,-20.994 0.003,-0.006 0.01,-0.009 0.013,-0.014 2.095,-3.475 4.99,-6.324 8.152,-8.022 0.486,-0.261 1.093,-0.079 1.354,0.408 0.081,0.15 0.119,0.313 0.119,0.472 0,0.356 -0.191,0.702 -0.527,0.882 -2.855,1.534 -5.481,4.129 -7.395,7.308 -0.003,0.004 -0.007,0.006 -0.01,0.01 -4.314,7.178 -3.933,15.354 0.853,18.238 2.258,1.359 5.193,1.339 8.265,-0.057 3.197,-1.453 6.131,-4.2 8.259,-7.735 3.191,-5.299 3.913,-11.312 1.84,-15.317 C 50.508,26.754 41.703,20.893 31.753,18.873 20.714,16.63 10.016,19.2 1.629,26.11 1.203,26.461 0.573,26.4 0.221,25.974 -0.13,25.548 -0.07,24.918 0.357,24.566 9.218,17.266 20.51,14.547 32.153,16.912 Z"
   style="opacity:1;fill:#ffffff;fill-rule:nonzero;stroke:#ffffff;stroke-width:1;stroke-linecap:butt;stroke-linejoin:miter;stroke-miterlimit:10;stroke-dasharray:none;fill-opacity:1;stroke-opacity:1"
   stroke-linecap="round"
   id="path167" />
</g></g><style
     type="text/css"
     id="style1151">.st0{fill-rule:evenodd;clip-rule:evenodd;}</style></svg>
